<?xml version="1.0" encoding="UTF-8"?>
<svg width="24px" height="24px" viewBox="0 0 24 24" version="1.1" xmlns="http://www.w3.org/2000/svg" xmlns:xlink="http://www.w3.org/1999/xlink">
    <title>active-object-name-ic</title>
    <g id="Smart-Infrastructure" stroke="none" stroke-width="1" fill="none" fill-rule="evenodd">
        <g id="active-object-name-ic" fill-rule="nonzero">
            <rect id="Rectangle" x="0" y="0" width="24" height="24"></rect>
            <path d="M6.17085427,15.8409426 L6.73366834,14.3431517 L10.5661642,14.3431517 L11.1155779,15.8409426 L13.2864322,15.8409426 L9.84254606,7 L7.45728643,7 L4,15.8409426 L6.17085427,15.8409426 Z M10.0435511,12.6863034 L7.25628141,12.6863034 L8.64991625,8.88217968 L10.0435511,12.6863034 Z M16.2479062,16 C17.1501954,16 17.8336125,15.7260677 18.2981575,15.1782032 L18.2981575,15.1782032 L18.2981575,15.8409426 L20,15.8409426 L20,11.7054492 C20,10.8483063 19.7364601,10.2297496 19.2093802,9.84977909 C18.6823004,9.46980854 18.0033501,9.27982327 17.1725293,9.27982327 C16.0558347,9.27982327 15.1133445,9.61561119 14.3450586,10.287187 L14.3450586,10.287187 L14.9882747,11.4138439 C15.5421552,10.910162 16.171971,10.6583211 16.8777219,10.6583211 C17.3065327,10.6583211 17.6504746,10.7555228 17.9095477,10.9499264 C18.1686209,11.1443299 18.2981575,11.4050074 18.2981575,11.7319588 L18.2981575,11.7319588 L18.2981575,12.5935199 C17.8514796,12.0721649 17.1680625,11.8114875 16.2479062,11.8114875 C15.6493579,11.8114875 15.1245114,11.9837997 14.6733668,12.3284242 C14.2222222,12.6730486 13.9966499,13.1899853 13.9966499,13.8792342 C13.9966499,14.5419735 14.226689,15.0611193 14.6867672,15.4366716 C15.1468453,15.8122239 15.667225,16 16.2479062,16 Z M16.9313233,14.8600884 C16.5829146,14.8600884 16.292574,14.7761414 16.0603015,14.6082474 C15.828029,14.4403535 15.7118928,14.2106038 15.7118928,13.9189985 C15.7118928,13.6185567 15.828029,13.3821797 16.0603015,13.2098675 C16.292574,13.0375552 16.5829146,12.9513991 16.9313233,12.9513991 C17.5656058,12.9513991 18.0212172,13.1369661 18.2981575,13.5081001 L18.2981575,13.5081001 L18.2981575,14.3033873 C18.0212172,14.6745214 17.5656058,14.8600884 16.9313233,14.8600884 Z" fill="#DCBC65"></path>
        </g>
    </g>
</svg>