<?xml version="1.0" encoding="UTF-8"?>
<svg width="24px" height="24px" viewBox="0 0 24 24" version="1.1" xmlns="http://www.w3.org/2000/svg" xmlns:xlink="http://www.w3.org/1999/xlink">
    <title>anchor-layer-ic</title>
    <g id="Smart-Infrastructure" stroke="none" stroke-width="1" fill="none" fill-rule="evenodd">
        <g id="30-Smart-Infrastructure-/-03-Sctructure-/-03_03_Areas-Panel-with-scroll" transform="translate(-834.000000, -573.000000)">
            <g id="Group-22" transform="translate(566.000000, 367.000000)">
                <g id="Group-5-Copy-4" transform="translate(200.000000, 191.000000)">
                    <g id="anchor-layer-ic" transform="translate(68.000000, 15.000000)">
                        <rect id="Rectangle" x="0" y="0" width="24" height="24"></rect>
                        <g id="Group-28" transform="translate(1.000000, 3.000000)">
                            <path d="M19,10 C20.6568542,10 22,11.3431458 22,13 L22,15 C22,16.6568542 20.6568542,18 19,18 L3,18 C1.34314575,18 2.02906125e-16,16.6568542 0,15 L0,13 C-2.02906125e-16,11.3431458 1.34314575,10 3,10 L19,10 Z M18.6666667,11.7777778 L3.33333333,11.7777778 C2.50490621,11.7777778 1.83333333,12.4493507 1.83333333,13.2777778 L1.83333333,13.2777778 L1.83333333,14.7222222 C1.83333333,15.5506493 2.50490621,16.2222222 3.33333333,16.2222222 L3.33333333,16.2222222 L18.6666667,16.2222222 C19.4950938,16.2222222 20.1666667,15.5506493 20.1666667,14.7222222 L20.1666667,14.7222222 L20.1666667,13.2777778 C20.1666667,12.4493507 19.4950938,11.7777778 18.6666667,11.7777778 L18.6666667,11.7777778 Z" id="Combined-Shape" fill="#54B0FF"></path>
                            <path d="M17,3 C17.5522847,3 18,3.44771525 18,4 L18,10 L18,10 L16,10 L16,4 C16,3.44771525 16.4477153,3 17,3 Z" id="Rectangle" fill="#54B0FF"></path>
                            <circle id="Oval" fill="#54B0FF" cx="5.5" cy="13.5" r="1.5"></circle>
                            <g id="Group-29" transform="translate(6.000000, 0.000000)" stroke="#54B0FF" stroke-linecap="round" stroke-width="2">
                                <path d="M3.55581897,7.55980436 C3.53343396,4.89030516 4.93773613,3.55555556 7.76872548,3.55555556" id="Path-18"></path>
                                <path d="M0.000444606281,7.11111111 C-0.0373374673,2.37037037 2.3328847,0 7.11111111,0" id="Path-18"></path>
                            </g>
                        </g>
                    </g>
                </g>
            </g>
        </g>
    </g>
</svg>