<?xml version="1.0" encoding="UTF-8"?>
<svg width="24px" height="24px" viewBox="0 0 24 24" version="1.1" xmlns="http://www.w3.org/2000/svg" xmlns:xlink="http://www.w3.org/1999/xlink">
    <title>camera-layer-ic</title>
    <g id="Smart-Infrastructure" stroke="none" stroke-width="1" fill="none" fill-rule="evenodd">
        <g id="30-Smart-Infrastructure-/-03-Sctructure-/-03_03_Areas-Panel-with-scroll" transform="translate(-835.000000, -658.000000)">
            <g id="Group-22" transform="translate(566.000000, 367.000000)">
                <g id="camera-layer-ic" transform="translate(269.000000, 291.000000)">
                    <rect id="Rectangle" x="0" y="0" width="24" height="24"></rect>
                    <g id="Group-27" transform="translate(2.000000, 1.000000)" fill="#ED9438">
                        <path d="M5.09606385,0.91793411 C5.10608887,0.922412097 5.11603945,0.927054888 5.12591156,0.931860593 L15.642189,6.05114579 C16.1272357,6.28726475 16.3375672,6.86555497 16.11755,7.35811453 L12.7370075,14.9262448 C12.5117618,15.4305095 11.9203769,15.6566991 11.4161122,15.4314535 L11.3862645,15.417527 L5.08,12.3477375 L5.08066957,14.5997101 C5.08066957,15.0594393 4.83642837,15.4621229 4.47062595,15.6850809 C4.47104316,15.6867057 4.47132413,15.6871733 4.47132413,15.6871733 C4.47132413,15.6871733 4.4614351,15.69173 4.44165706,15.7008435 C4.37672828,15.7394506 4.30840502,15.7710409 4.23714609,15.7964472 C3.9451247,15.9296397 3.37983984,16.1901163 2.54132846,16.5764923 L2.54033478,20 C2.54033478,20.5522847 2.09261953,21 1.54033478,21 L1,21 C0.44771525,21 6.76353751e-17,20.5522847 0,20 L0,15.5873469 C-6.76353751e-17,15.0350621 0.44771525,14.5873469 1,14.5873469 L1.54033478,14.5873469 C1.95856984,14.5873469 2.31683686,14.8441006 2.46611372,15.2085858 L3.81050217,14.5873469 L3.81,11.7287375 L0.86998707,10.2982418 C0.38494036,10.0621228 0.174608927,9.48383262 0.39462609,8.99127306 L3.77516863,1.4231428 C4.00041425,0.918878127 4.59179918,0.692688494 5.09606385,0.91793411 Z M17.0495445,8.51815568 L18.5637478,9.24582374 C19.0534368,9.48114947 19.2656501,10.0644033 19.0416806,10.5593893 L17.1860707,14.6603982 C16.9583967,15.1635711 16.3659283,15.3869072 15.8627553,15.1592333 C15.8557506,15.1560638 15.8487827,15.1528137 15.841853,15.1494835 L14.369235,14.4417998 L17.0495445,8.51815568 Z" id="Combined-Shape"></path>
                    </g>
                </g>
            </g>
        </g>
    </g>
</svg>