<?xml version="1.0" encoding="UTF-8"?>
<svg width="24px" height="24px" viewBox="0 0 24 24" version="1.1" xmlns="http://www.w3.org/2000/svg" xmlns:xlink="http://www.w3.org/1999/xlink">
    <title>camera-toolbox-ic</title>
    <g id="Smart-Infrastructure" stroke="none" stroke-width="1" fill="none" fill-rule="evenodd">
        <g id="30-Smart-Infrastructure-/-03-Sctructure-/-03_02_Active-View-Settings" transform="translate(-72.000000, -431.000000)">
            <g id="Group-17" transform="translate(16.000000, 217.000000)">
                <g id="camera-toolbox-ic" transform="translate(56.000000, 214.000000)">
                    <rect id="Rectangle" x="0" y="0" width="24" height="24"></rect>
                    <g id="icon-/-24-cont-services-/-Camera-viewer-" transform="translate(4.000000, 4.000000)" fill="#dcbc65">
                        <path d="M11.9023095,6.47995903 L12.9816741,6.4994516 C13.5200254,6.50917385 13.9540278,6.94340674 13.9634641,7.48176319 L14.0169933,10.5356766 C14.0266723,11.0878765 13.5868722,11.5433693 13.0346723,11.5530484 C13.0228126,11.5532562 13.0109501,11.5532531 12.9990906,11.5530389 L11.9909117,11.5348319 L11.9909117,11.5348319 L11.9023095,6.47995903 Z" id="Rectangle" transform="translate(12.968732, 9.025854) rotate(25.000000) translate(-12.968732, -9.025854) "></path>
                        <path d="M3,5 L4,5 L4,11 C4,11.5522847 3.55228475,12 3,12 L3,12 L3,12 L3,5 Z" id="Rectangle"></path>
                        <path d="M1.43096754,10.598392 C2.09685019,10.5372671 2.42979151,10.5067046 2.42979151,10.5067046 C2.42979151,10.5067046 2.40329802,11.5386911 2.35031103,13.6026642 L1.35846884,13.5951661 L1.43096754,10.598392 Z" id="Rectangle" transform="translate(1.894130, 12.054684) rotate(64.000000) translate(-1.894130, -12.054684) "></path>
                        <rect id="Rectangle" x="0" y="11" width="2" height="5" rx="1"></rect>
                        <path d="M4.22809833,0.445496579 L12.1219162,4.25113573 C12.6104511,4.48666026 12.822198,5.06867727 12.5992157,5.56306286 L10.1177424,11.0648656 C9.89067344,11.5683119 9.29847387,11.79236 8.7950276,11.5652911 C8.78727339,11.5617937 8.77956412,11.5581975 8.77190167,11.5545034 L0.878083825,7.74886427 C0.389548863,7.51333974 0.177802017,6.93132273 0.400784318,6.43693714 L2.88225762,0.935134372 C3.10932656,0.431688103 3.70152613,0.207640004 4.2049724,0.434708936 C4.21272661,0.438206311 4.22043588,0.441802485 4.22809833,0.445496579 Z" id="Rectangle"></path>
                    </g>
                </g>
            </g>
        </g>
    </g>
</svg>