<?xml version="1.0" encoding="UTF-8"?>
<svg width="24px" height="24px" viewBox="0 0 24 24" version="1.1" xmlns="http://www.w3.org/2000/svg" xmlns:xlink="http://www.w3.org/1999/xlink">
    <title>charge-station-layer-ic</title>
    <defs>
        <filter id="filter-1">
            <feColorMatrix in="SourceGraphic" type="matrix" values="0 0 0 0 0.219608 0 0 0 0 0.929412 0 0 0 0 0.356863 0 0 0 1.000000 0"></feColorMatrix>
        </filter>
    </defs>
    <g id="Smart-Infrastructure" stroke="none" stroke-width="1" fill="none" fill-rule="evenodd">
        <g id="30-Smart-Infrastructure-/-03-Sctructure-/-03_03_Areas-Panel-with-scroll" transform="translate(-1010.000000, -482.000000)">
            <g id="Group-22" transform="translate(566.000000, 367.000000)">
                <g id="charge-station-layer-ic" transform="translate(444.000000, 115.000000)">
                    <path d="M22,0.5 C22.4142136,0.5 22.7892136,0.667893219 23.0606602,0.939339828 C23.3321068,1.21078644 23.5,1.58578644 23.5,2 L23.5,2 L23.5,22 C23.5,22.4142136 23.3321068,22.7892136 23.0606602,23.0606602 C22.7892136,23.3321068 22.4142136,23.5 22,23.5 L22,23.5 L2,23.5 C1.58578644,23.5 1.21078644,23.3321068 0.939339828,23.0606602 C0.667893219,22.7892136 0.5,22.4142136 0.5,22 L0.5,22 L0.5,2 C0.5,1.58578644 0.667893219,1.21078644 0.939339828,0.939339828 C1.21078644,0.667893219 1.58578644,0.5 2,0.5 L2,0.5 Z" id="Rectangle" stroke="#38ED5B" fill-opacity="0.121448864" fill="#38ED5B"></path>
                    <g id="Group" transform="translate(6.000000, 5.000000)" filter="url(#filter-1)">
                        <g transform="translate(0.750000, 0.250000)">
                            <polygon id="Path" fill="#000000" fill-rule="nonzero" points="7.06604348 11.6862717 3.43327174 11.6862717 3.43327174 13.2302283 4.51477174 13.2302283 4.51477174 14.0951087 5.985 14.0951087 5.985 13.2302283 7.06604348 13.2302283"></polygon>
                            <path d="M10.4057283,4.368 L8.33768478,4.368 L8.33768478,0.738195652 C8.33768478,0.362021739 8.03272826,0.0570652174 7.65655435,0.0570652174 C7.28038043,0.0570652174 6.97542391,0.362021739 6.97542391,0.738195652 L6.97542391,4.368 L3.52411957,4.368 L3.52411957,0.738195652 C3.52411957,0.362021739 3.21916304,0.0570652174 2.84298913,0.0570652174 C2.46658696,0.0570652174 2.1618587,0.362021739 2.1618587,0.738195652 L2.1618587,4.368 L0.0942717391,4.368 L0.0942717391,5.91309783 L0.847532609,5.91309783 L0.847532609,8.69902174 C0.847532609,10.0987174 1.98221739,11.2334022 3.38168478,11.2334022 L7.11763043,11.2334022 C8.51732609,11.2334022 9.65178261,10.0987174 9.65178261,8.69902174 L9.65178261,5.91332609 L10.4055,5.91332609 L10.4055,4.368 L10.4057283,4.368 Z" id="Shape" fill="#000000" fill-rule="nonzero"></path>
                        </g>
                    </g>
                </g>
            </g>
        </g>
    </g>
</svg>