<?xml version="1.0" encoding="UTF-8"?>
<svg width="24px" height="24px" viewBox="0 0 24 24" version="1.1" xmlns="http://www.w3.org/2000/svg" xmlns:xlink="http://www.w3.org/1999/xlink">
    <title>charge-station-icon</title>
    <defs>
        <filter id="filter-1">
            <feColorMatrix in="SourceGraphic" type="matrix" values="0 0 0 0 0.219608 0 0 0 0 0.929412 0 0 0 0 0.356863 0 0 0 1.000000 0"></feColorMatrix>
        </filter>
    </defs>
    <g id="Smart-Infrastructure-v4" stroke="none" stroke-width="1" fill="none" fill-rule="evenodd">
        <g id="30-Smart-Infrastructure-/-03-Sctructure-/-03_01_FloorView" transform="translate(-88.000000, -816.000000)">
            <g id="Group-17" transform="translate(0.000000, 734.000000)">
                <g id="Group-12" transform="translate(24.000000, 68.000000)">
                    <g id="Group-4" transform="translate(0.000000, 2.000000)">
                        <g id="charge-station-icon" transform="translate(64.000000, 12.000000)">
                            <path d="M22,1 L2,1 C1.72385763,1 1.47385763,1.11192881 1.29289322,1.29289322 C1.11192881,1.47385763 1,1.72385763 1,2 L1,22 C1,22.2761424 1.11192881,22.5261424 1.29289322,22.7071068 C1.47385763,22.8880712 1.72385763,23 2,23 L22,23 C22.2761424,23 22.5261424,22.8880712 22.7071068,22.7071068 C22.8880712,22.5261424 23,22.2761424 23,22 L23,2 C23,1.72385763 22.8880712,1.47385763 22.7071068,1.29289322 C22.5261424,1.11192881 22.2761424,1 22,1 Z" id="Rectangle" stroke="#38ED5B" stroke-width="2" fill-opacity="0.121448864" fill="#38ED5B"></path>
                            <g id="icon-/-24-cont-/-nav-/-plug-24" transform="translate(3.000000, 3.000000)">
                                <g filter="url(#filter-1)" id="Group">
                                    <g transform="translate(3.750000, 2.250000)">
                                        <polygon id="Path" fill="#000000" fill-rule="nonzero" points="7.06604348 11.6862717 3.43327174 11.6862717 3.43327174 13.2302283 4.51477174 13.2302283 4.51477174 14.0951087 5.985 14.0951087 5.985 13.2302283 7.06604348 13.2302283"></polygon>
                                        <path d="M10.4057283,4.368 L8.33768478,4.368 L8.33768478,0.738195652 C8.33768478,0.362021739 8.03272826,0.0570652174 7.65655435,0.0570652174 C7.28038043,0.0570652174 6.97542391,0.362021739 6.97542391,0.738195652 L6.97542391,4.368 L3.52411957,4.368 L3.52411957,0.738195652 C3.52411957,0.362021739 3.21916304,0.0570652174 2.84298913,0.0570652174 C2.46658696,0.0570652174 2.1618587,0.362021739 2.1618587,0.738195652 L2.1618587,4.368 L0.0942717391,4.368 L0.0942717391,5.91309783 L0.847532609,5.91309783 L0.847532609,8.69902174 C0.847532609,10.0987174 1.98221739,11.2334022 3.38168478,11.2334022 L7.11763043,11.2334022 C8.51732609,11.2334022 9.65178261,10.0987174 9.65178261,8.69902174 L9.65178261,5.91332609 L10.4055,5.91332609 L10.4055,4.368 L10.4057283,4.368 Z" id="Shape" fill="#000000" fill-rule="nonzero"></path>
                                    </g>
                                </g>
                            </g>
                        </g>
                    </g>
                </g>
            </g>
        </g>
    </g>
</svg>