<?xml version="1.0" encoding="UTF-8"?>
<svg width="46px" height="44px" viewBox="0 0 46 44" version="1.1" xmlns="http://www.w3.org/2000/svg" xmlns:xlink="http://www.w3.org/1999/xlink">
    <title>Group 4</title>
    <g id="Smart-Infrastructure" stroke="none" stroke-width="1" fill="none" fill-rule="evenodd">
        <g id="24-Smart-Infrastructure-/-03-Sctructure-/-03_34_Dropped-Charge-Station-Dock-add" transform="translate(-772.000000, -552.000000)" fill-rule="nonzero">
            <g id="Group-4" transform="translate(772.506153, 552.000000)">
                <path d="M22.4941148,9.09494702e-13 C34.6443793,9.09494702e-13 44.4941148,9.8497355 44.4941148,22 C44.4941148,34.1502645 34.6443793,44 22.4941148,44 L22.4941148,43 L22.4941148,43 C34.0920945,43 43.4941148,33.5979797 43.4941148,22 C43.4941148,10.4020203 34.0920945,1 22.4941148,1 L22.4941148,9.09494702e-13 L22.4941148,9.09494702e-13 Z" id="Combined-Shape" fill="#E96058"></path>
                <path d="M0.494114763,0 C12.6443793,0 22.4941148,9.8497355 22.4941148,22 C22.4941148,34.1502645 12.6443793,44 0.494114763,44 C0.328978572,44 0.164267333,43.9981806 1.83822402e-12,43.9945606 L1.19996651e-05,42.9943014 C0.164253769,42.9980935 0.328961626,43 0.494114763,43 C12.0920945,43 21.4941148,33.5979797 21.4941148,22 C21.4941148,10.4020203 12.0920945,1 0.494114763,1 C0.328961626,1 0.164253769,1.00190647 1.19996651e-05,1.00569861 L1.8416102e-12,0.00543936598 C0.164267333,0.00181943956 0.328978572,0 0.494114763,0 Z" id="Combined-Shape" fill="#51A93F" transform="translate(11.247057, 22.000000) scale(-1, 1) translate(-11.247057, -22.000000) "></path>
            </g>
        </g>
    </g>
</svg>