<?xml version="1.0" encoding="UTF-8"?>
<svg width="42px" height="44px" viewBox="0 0 42 44" version="1.1" xmlns="http://www.w3.org/2000/svg" xmlns:xlink="http://www.w3.org/1999/xlink">
    <title>Group 15</title>
    <g id="Smart-Infrastructure" stroke="none" stroke-width="1" fill="none" fill-rule="evenodd">
        <g id="24-Smart-Infrastructure-/-03-Sctructure-/-03_34_Dropped-Charge-Station-Dock-add" transform="translate(-692.000000, -582.000000)" fill-rule="nonzero">
            <g id="Group-4" transform="translate(683.000000, 582.000000)">
                <g id="Group-15" transform="translate(9.000000, 0.000000)">
                    <path d="M40.4814242,29.8554394 C40.8158028,29.9203135 41.1576653,29.963756 41.5055332,29.9849683 C38.3097928,38.1875525 30.3336813,44 21,44 L21,43 L21,43 C29.8205808,43 37.3710146,37.5618541 40.4814242,29.8554394 Z M21,9.09494702e-13 C30.3336813,9.09494702e-13 38.3097928,5.81244746 41.5061531,14.0151611 C41.1576653,14.036244 40.8158028,14.0796865 40.4813483,14.1439569 C37.3710146,6.43814593 29.8205808,1 21,1 L21,9.09494702e-13 L21,9.09494702e-13 Z" id="Combined-Shape" fill="#E96058"></path>
                    <path d="M19.9755389,29.8554394 C20.3099176,29.9203135 20.65178,29.963756 20.999648,29.9849683 C17.8039075,38.1875525 9.82779607,44 0.494114763,44 C0.328978572,44 0.164267333,43.9981806 -1.61953784e-13,43.9945606 L1.19996631e-05,42.9943014 C0.164253769,42.9980935 0.328961626,43 0.494114763,43 C9.31469558,43 16.8651294,37.5618541 19.9755389,29.8554394 Z M0.494114763,2.72848411e-12 C9.82779607,2.72848411e-12 17.8039075,5.81244746 21.0002678,14.0151611 C20.65178,14.036244 20.3099176,14.0796865 19.9754631,14.1439569 C16.8651294,6.43814593 9.31469558,1 0.494114763,1 C0.328961626,1 0.164253769,1.00190647 1.19996631e-05,1.00569861 L-1.58623115e-13,0.00543936599 C0.164267333,0.00181943956 0.328978572,2.72848411e-12 0.494114763,2.72848411e-12 Z" id="Combined-Shape" fill="#51A93F" transform="translate(10.500134, 22.000000) scale(-1, 1) translate(-10.500134, -22.000000) "></path>
                </g>
            </g>
        </g>
    </g>
</svg>