<?xml version="1.0" encoding="UTF-8"?>
<svg width="24px" height="24px" viewBox="0 0 24 24" version="1.1" xmlns="http://www.w3.org/2000/svg" xmlns:xlink="http://www.w3.org/1999/xlink">
    <title>disabled-object-name-ic</title>
    <g id="Smart-Infrastructure" stroke="none" stroke-width="1" fill="none" fill-rule="evenodd">
        <g id="disabled-object-name-ic" transform="translate(0.000000, 0.000000)">
            <rect id="Rectangle" fill-rule="nonzero" x="0" y="-9.09494702e-13" width="24" height="24"></rect>
            <path d="M17.7273651,9.3106291 C18.3108338,9.37842952 18.8048388,9.55814618 19.2093802,9.84977909 C19.7364601,10.2297496 20,10.8483063 20,11.7054492 L20,11.7054492 L20,15.8409426 L18.2981575,15.8409426 L18.2981575,15.1782032 L18.1774614,15.3094624 C17.7181897,15.7698208 17.0750047,16 16.2479062,16 C15.667225,16 15.1468453,15.8122239 14.6867672,15.4366716 C14.226689,15.0611193 13.9966499,14.5419735 13.9966499,13.8792342 C13.9966499,13.4270076 14.0937559,13.0489591 14.2879678,12.7450889 L14.7873536,12.2460862 C15.2122419,11.9563537 15.6990928,11.8114875 16.2479062,11.8114875 C17.1680625,11.8114875 17.8514796,12.0721649 18.2981575,12.5935199 L18.2981575,12.5935199 L18.2981575,11.7319588 L18.2902266,11.5958943 C18.2585034,11.3318806 18.1316104,11.116558 17.9095477,10.9499264 C17.6504746,10.7555228 17.3065327,10.6583211 16.8777219,10.6583211 C16.6864634,10.6583211 16.5007817,10.6768165 16.3206767,10.7138074 Z M9.84254606,7 L11.114,10.264 L9.681,11.697 L8.64991625,8.88217968 L7.25628141,12.6863034 L8.692,12.686 L7.035,14.343 L6.73366834,14.3431517 L6.551,14.827 L5.538,15.84 L4,15.8409426 L7.45728643,7 L9.84254606,7 Z M12.7,14.336 L13.2864322,15.8409426 L11.195,15.84 L12.7,14.336 Z M16.9313233,12.9513991 C16.5829146,12.9513991 16.292574,13.0375552 16.0603015,13.2098675 C15.828029,13.3821797 15.7118928,13.6185567 15.7118928,13.9189985 C15.7118928,14.2106038 15.828029,14.4403535 16.0603015,14.6082474 C16.292574,14.7761414 16.5829146,14.8600884 16.9313233,14.8600884 C17.5656058,14.8600884 18.0212172,14.6745214 18.2981575,14.3033873 L18.2981575,14.3033873 L18.2981575,13.5081001 L18.2097152,13.402327 C17.9283082,13.1017084 17.5021776,12.9513991 16.9313233,12.9513991 Z" id="Combined-Shape" fill="#7E7E7E"></path>
            <rect id="Rectangle" fill="#7E7E7E" transform="translate(12.024621, 12.207107) scale(-1, 1) rotate(315.000000) translate(-12.024621, -12.207107) " x="11.5246212" y="2.20710678" width="1" height="20"></rect>
        </g>
    </g>
</svg>