<?xml version="1.0" encoding="UTF-8"?>
<svg width="24px" height="24px" viewBox="0 0 24 24" version="1.1" xmlns="http://www.w3.org/2000/svg" xmlns:xlink="http://www.w3.org/1999/xlink">
    <title>Shape</title>
    <g id="Smart-Infrastructure" stroke="none" stroke-width="1" fill="none" fill-rule="evenodd">
        <g id="24-Smart-Infrastructure-/-03-Sctructure-/-03_20_Successfully-Saved" transform="translate(-853.000000, -384.000000)" fill="#1AC0C9">
            <g id="Group-2" transform="translate(0.000000, 201.000000)">
                <g id="Group-14" transform="translate(167.000000, 131.000000)">
                    <g id="Group-10" transform="translate(0.237012, 0.653019)">
                        <g id="Group-7" transform="translate(0.762988, 0.346981)">
                            <path d="M689.327452,53.701482 C691.135498,52.2110092 693.38391,51.2328864 695.852505,51 L695.852505,57.3768525 C695.119972,57.5250529 694.43825,57.8129852 693.832745,58.2110092 L689.327452,53.701482 Z M706.298518,55.3274524 C707.793225,57.1354975 708.767114,59.3839097 709,61.8525053 L702.627382,61.8525053 C702.479181,61.1199718 702.187015,60.4382498 701.788991,59.8327452 L706.298518,55.3274524 Z M706.16302,57.084686 L703.215949,60.0317572 C703.321807,60.2519407 703.414961,60.4763585 703.495413,60.7050106 L707.666196,60.7050106 C707.386733,59.4135498 706.878617,58.1898377 706.16302,57.084686 L706.16302,57.084686 Z M698.147495,51 C700.61609,51.2328864 702.864502,52.2110092 704.672548,53.701482 L700.167255,58.2110092 C699.56175,57.8129852 698.880028,57.5250529 698.147495,57.3768525 L698.147495,51 L698.147495,51 Z M699.294989,52.3380381 L699.294989,56.5045872 C699.527876,56.5850388 699.752294,56.6781934 699.968243,56.7840508 L702.915314,53.8369795 C701.810162,53.1213832 700.58645,52.6132675 699.294989,52.3380381 L699.294989,52.3380381 Z M709,64.1474947 C708.767114,66.6160903 707.793225,68.8645025 706.298518,70.6725476 L701.788991,66.1672548 C702.187015,65.5617502 702.479181,64.8800282 702.627382,64.1474947 L709,64.1474947 Z M704.672548,72.298518 C702.864502,73.7932251 700.61609,74.7671136 698.147495,75 L698.147495,68.6273818 C698.880028,68.4791814 699.56175,68.1870148 700.167255,67.7889908 L704.672548,72.298518 Z M695.852505,75 C693.38391,74.7671136 691.135498,73.7932251 689.327452,72.298518 L693.832745,67.7889908 C694.43825,68.1870148 695.119972,68.4791814 695.852505,68.6273818 L695.852505,75 Z M687.701482,70.6725476 C686.211009,68.8645025 685.232886,66.6160903 685,64.1474947 L691.376853,64.1474947 C691.525053,64.8800282 691.812985,65.5617502 692.211009,66.1672548 L687.701482,70.6725476 Z M685,61.8525053 C685.232886,59.3839097 686.211009,57.1354975 687.701482,55.3274524 L692.211009,59.8327452 C691.812985,60.4382498 691.525053,61.1199718 691.376853,61.8525053 L685,61.8525053 Z" id="Shape"></path>
                        </g>
                    </g>
                </g>
            </g>
        </g>
    </g>
</svg>
