<?xml version="1.0" encoding="UTF-8"?>
<svg width="24px" height="24px" viewBox="0 0 24 24" version="1.1" xmlns="http://www.w3.org/2000/svg" xmlns:xlink="http://www.w3.org/1999/xlink">
    <title>shape-tool-active</title>
    <g id="Smart-Infrastructure-v4" stroke="none" stroke-width="1" fill="none" fill-rule="evenodd">
        <g id="30-Smart-Infrastructure-/-03-Sctructure-/-03_04_Floor-Hint" transform="translate(-36.000000, -289.000000)">
            <g id="Group-20" transform="translate(16.000000, 217.000000)">
                <g id="Group-19" transform="translate(20.000000, 24.000000)">
                    <g id="shape-tool-active" transform="translate(0.000000, 48.000000)">
                        <rect id="Rectangle" x="0" y="0" width="24" height="24"></rect>
                        <g id="Group-7" transform="translate(4.000000, 4.000000)" fill="#DCBC65">
                            <rect id="Rectangle" x="1" y="4" width="1" height="8"></rect>
                            <rect id="Rectangle" transform="translate(8.000000, 14.500000) rotate(-90.000000) translate(-8.000000, -14.500000) " x="7.5" y="10.5" width="1" height="8"></rect>
                            <path d="M8,1 L8,2 L7.999,6.999 L15,7 L15,7 L15,12 L14,12 L14,8 L7.999,7.999 L8,8 L7,8 L7,2 L4,2 L4,1 L8,1 Z" id="Combined-Shape"></path>
                            <circle id="Oval" cx="14.5" cy="14.5" r="1.5"></circle>
                            <circle id="Oval" cx="1.5" cy="14.5" r="1.5"></circle>
                            <circle id="Oval" cx="1.5" cy="1.5" r="1.5"></circle>
                        </g>
                    </g>
                </g>
            </g>
        </g>
    </g>
</svg>