<?xml version="1.0" encoding="UTF-8"?>
<svg width="24px" height="24px" viewBox="0 0 24 24" version="1.1" xmlns="http://www.w3.org/2000/svg" xmlns:xlink="http://www.w3.org/1999/xlink">
    <title>Group 23</title>
    <g id="Smart-Infrastructure-v4" stroke="none" stroke-width="1" fill="none" fill-rule="evenodd">
        <g id="30-Smart-Infrastructure-/-03-Sctructure-/-03_01_FloorView" transform="translate(-36.000000, -485.000000)">
            <g id="Group-23" transform="translate(36.000000, 485.000000)">
                <rect id="Rectangle" x="0" y="0" width="24" height="24"></rect>
                <path d="M13.7897417,18.0038067 L13.7897417,19.9910889 L12.4268036,19.9910889 L12.4268036,21 L10.5731964,21 L10.5731964,19.9910889 L9.00158691,19.9910889 L9.00158691,18.0038067 L13.7897417,18.0038067 Z M14.5342351,3 C15.0085007,3 15.3929781,3.39102439 15.3929781,3.87336585 L15.3929781,3.87336585 L15.3929781,8.52760976 L18,8.52760976 L18,10.5090732 L17.0497421,10.5090732 L17.0497421,14.0809756 C17.0497421,15.8757073 15.619463,17.3306341 13.8547805,17.3306341 L13.8547805,17.3306341 L9.14464392,17.3306341 C7.38024926,17.3306341 5.94968233,15.8757073 5.94968233,14.0809756 L5.94968233,14.0809756 L5.94968233,10.5087805 L5,10.5087805 L5,8.52760976 L7.60673411,8.52760976 L7.60673411,3.87336585 C7.60673411,3.39102439 7.99092378,3 8.46547717,3 C8.93974277,3 9.32422022,3.39102439 9.32422022,3.87336585 L9.32422022,3.87336585 L9.32422022,8.52760976 L13.675492,8.52760976 L13.675492,3.87336585 C13.675492,3.39102439 14.0599695,3 14.5342351,3 Z" id="Combined-Shape" fill="#7E7E7E" fill-rule="nonzero"></path>
            </g>
        </g>
    </g>
</svg>