<?xml version="1.0" encoding="UTF-8"?>
<svg width="24px" height="24px" viewBox="0 0 24 24" version="1.1" xmlns="http://www.w3.org/2000/svg" xmlns:xlink="http://www.w3.org/1999/xlink">
    <title>station-toolbox-ic</title>
    <g id="Smart-Infrastructure" stroke="none" stroke-width="1" fill="none" fill-rule="evenodd">
        <g id="30-Smart-Infrastructure-/-03-Sctructure-/-03_03_Areas-Panel-with-scroll" transform="translate(-1010.000000, -570.000000)">
            <g id="Group-22" transform="translate(566.000000, 367.000000)">
                <g id="Group-5-Copy-5" transform="translate(376.000000, 191.000000)">
                    <g id="station-toolbox-ic" transform="translate(68.000000, 12.000000)">
                        <rect id="Rectangle" x="0" y="0" width="24" height="24"></rect>
                        <g transform="translate(2.000000, 2.000000)" id="Group-33">
                            <path d="M16.0645017,7.56106921 C16.8641385,7.312358 18.1028893,7.8777162 18.5179448,8.27886866 C18.9982259,8.74298599 19.2560985,9.07139746 19.6094927,9.7232495 C19.7868135,10.0501697 20.1566032,11.0034246 19.9270663,11.413359 C19.6369373,11.932322 18.9308618,12.1470654 16.9897779,12.3677738 C15.8267671,12.5 14.375053,12.5 14.375053,12.5 C14.375053,12.5 12.9228043,12.5 11.7603281,12.3677738 C9.8192442,12.1472311 9.11299047,11.932322 8.82286151,11.413359 C8.59350281,11.0034246 8.96311427,10.0501697 9.1404351,9.7232495 C9.4940075,9.07139746 9.75170189,8.74298599 10.2319829,8.27886866 C10.6470384,7.8777162 11.8857893,7.3125237 12.685426,7.56106921 C13.3232464,7.69080997 13.3535424,8.03231151 14.375053,8.03231151 C15.3965635,8.03231151 15.4266814,7.69097567 16.0645017,7.56106921 Z M14.375,1.15463195e-14 C16.1008968,1.15463195e-14 17.5,1.11817566 17.5,2.84405896 C17.5,4.56978259 15.881829,6.25 14.375,6.25 C12.8186857,6.25 11.25,4.56994226 11.25,2.84405896 C11.25,1.11817566 12.6492935,1.15463195e-14 14.375,1.15463195e-14 Z" id="Mask" fill="#EFE52C" fill-rule="nonzero"></path>
                            <g id="Group-34" transform="translate(0.000000, 11.250000)">
                                <path d="M1,5 C0.44771525,5 6.76353751e-17,4.55228475 0,4 L0,1 C-6.76353751e-17,0.44771525 0.44771525,1.01453063e-16 1,0 L5.25,0 C5.80228475,-1.01453063e-16 6.25,0.44771525 6.25,1 L6.25,3.75 L20,3.75 L20,5 L1,5 Z" id="Combined-Shape" fill="#EFE52C"></path>
                                <line x1="0.625" y1="8.125" x2="5.625" y2="3.125" id="Path-7" stroke="#EFE52C" stroke-linecap="round"></line>
                                <line x1="4.375" y1="8.125" x2="8.125" y2="4.375" id="Path-7" stroke="#EFE52C" stroke-linecap="round"></line>
                                <line x1="8.125" y1="8.125" x2="11.875" y2="4.375" id="Path-7" stroke="#EFE52C" stroke-linecap="round"></line>
                                <line x1="11.875" y1="8.125" x2="15.625" y2="4.375" id="Path-7" stroke="#EFE52C" stroke-linecap="round"></line>
                                <line x1="15.625" y1="8.125" x2="19.375" y2="4.375" id="Path-7" stroke="#EFE52C" stroke-linecap="round"></line>
                            </g>
                        </g>
                    </g>
                </g>
            </g>
        </g>
    </g>
</svg>