<?xml version="1.0" encoding="UTF-8"?>
<svg width="28px" height="24px" viewBox="0 0 28 24" version="1.1" xmlns="http://www.w3.org/2000/svg" xmlns:xlink="http://www.w3.org/1999/xlink">
    <title>Group 27</title>
    <defs>
        <filter id="filter-1">
            <feColorMatrix in="SourceGraphic" type="matrix" values="0 0 0 0 0.219608 0 0 0 0 0.929412 0 0 0 0 0.356863 0 0 0 1.000000 0"></feColorMatrix>
        </filter>
    </defs>
    <g id="Smart-Infrastructure" stroke="none" stroke-width="1" fill="none" fill-rule="evenodd">
        <g id="24-Smart-Infrastructure-/-03-Sctructure-/-03_31_Charge_Stations-Menu" transform="translate(-142.000000, -421.000000)">
            <g id="station-list" transform="translate(116.000000, 385.000000)">
                <g id="Group-17" transform="translate(16.000000, 24.000000)">
                    <g id="Group-27" transform="translate(10.000000, 12.000000)">
                        <path d="M22,0.5 C22.9664983,0.5 23.8414983,0.891750844 24.4748737,1.52512627 C25.1082492,2.15850169 25.5,3.03350169 25.5,4 L25.5,4 L25.5,20 C25.5,20.9664983 25.1082492,21.8414983 24.4748737,22.4748737 C23.8414983,23.1082492 22.9664983,23.5 22,23.5 L22,23.5 L6,23.5 C5.03350169,23.5 4.15850169,23.1082492 3.52512627,22.4748737 C2.89175084,21.8414983 2.5,20.9664983 2.5,20 L2.5,20 L2.5,4 C2.5,3.03350169 2.89175084,2.15850169 3.52512627,1.52512627 C4.15850169,0.891750844 5.03350169,0.5 6,0.5 L6,0.5 Z" id="Rectangle-6-Copy-18" stroke="#38ED5B" fill-opacity="0.3" fill="#38ED5B"></path>
                        <g id="icon-/-24-cont-/-device-/-station-24" transform="translate(6.000000, 4.000000)" filter="url(#filter-1)">
                            <g>
                                <path d="M9.61426087,11.7211304 L9.61426087,13.0935362 L8.65333333,13.0935362 L8.65333333,13.8623188 L7.34646377,13.8623188 L7.34646377,13.0935362 L6.38513043,13.0935362 L6.38513043,11.7211304 L9.61426087,11.7211304 Z M10.1391594,1.38405797 C10.4735362,1.38405797 10.7446087,1.65513043 10.7446087,1.98950725 L10.7446087,1.98950725 L10.7446087,5.216 L12.5826667,5.216 L12.5826667,6.58962319 L11.9126957,6.58962319 L11.9126957,9.0657971 C11.9126957,10.309971 10.9042899,11.3185797 9.66011594,11.3185797 L9.66011594,11.3185797 L6.33927536,11.3185797 C5.09530435,11.3185797 4.08669565,10.309971 4.08669565,9.0657971 L4.08669565,9.0657971 L4.08669565,6.58942029 L3.41713043,6.58942029 L3.41713043,5.216 L5.25498551,5.216 L5.25498551,1.98950725 C5.25498551,1.65513043 5.52585507,1.38405797 5.86043478,1.38405797 C6.19481159,1.38405797 6.46588406,1.65513043 6.46588406,1.98950725 L6.46588406,1.98950725 L6.46588406,5.216 L9.53371014,5.216 L9.53371014,1.98950725 C9.53371014,1.65513043 9.80478261,1.38405797 10.1391594,1.38405797 Z" id="Combined-Shape" fill="#67B231"></path>
                            </g>
                        </g>
                        <circle id="Oval" fill="#38ED5B" cx="25.5" cy="12.5" r="2.5"></circle>
                        <circle id="Oval" fill="#38ED5B" cx="2.5" cy="12.5" r="2.5"></circle>
                    </g>
                </g>
            </g>
        </g>
    </g>
</svg>