<?xml version="1.0" encoding="UTF-8"?>
<svg width="24px" height="24px" viewBox="0 0 24 24" version="1.1" xmlns="http://www.w3.org/2000/svg" xmlns:xlink="http://www.w3.org/1999/xlink">
    <title>77336F9C-669D-4C43-9891-959BAAB2829F@1x</title>
    <defs>
        <path d="M12.8516014,6.04885537 C13.4913108,5.8498864 14.4823115,6.30217296 14.8143559,6.62309493 C15.1985807,6.99438879 15.4048788,7.25711797 15.6875941,7.7785996 C15.8294508,8.04013576 16.1252825,8.80273968 15.941653,9.1306872 C15.7095498,9.54585763 15.1446894,9.71765229 13.5918223,9.89421903 C12.8256034,9.98133277 11.9027455,9.99670578 11.6008925,9.99941867 L11.5118147,9.99997847 L11.5118147,9.99997847 L11.5000424,10 C11.5000424,10 11.4960223,10 11.4882659,9.99997847 L11.3991594,9.99941867 C11.0972149,9.99670578 10.1741291,9.98133277 9.40826249,9.89421903 C7.85539536,9.71778485 7.29039238,9.54585763 7.05828921,9.1306872 C6.87480225,8.80273968 7.17049142,8.04013576 7.31234808,7.7785996 C7.595206,7.25711797 7.80136151,6.99438879 8.18558635,6.62309493 C8.51763075,6.30217296 9.50863143,5.85001896 10.1483408,6.04885537 C10.3053428,6.08079156 10.416331,6.12876643 10.5185634,6.17988648 L10.6700024,6.25731376 C10.8498866,6.34663702 11.0600071,6.42584921 11.5000424,6.42584921 C12.3172508,6.42584921 12.3413451,6.15278053 12.8516014,6.04885537 Z M11.5,0 C12.8807175,0 14,0.894540531 14,2.27524717 C14,3.65582607 12.7054632,5 11.5,5 C10.2549485,5 9,3.65595381 9,2.27524717 C9,0.894540531 10.1194348,0 11.5,0 Z" id="path-1"></path>
        <filter x="-77.8%" y="-50.0%" width="255.6%" height="240.0%" filterUnits="objectBoundingBox" id="filter-2">
            <feOffset dx="0" dy="2" in="SourceAlpha" result="shadowOffsetOuter1"></feOffset>
            <feGaussianBlur stdDeviation="2" in="shadowOffsetOuter1" result="shadowBlurOuter1"></feGaussianBlur>
            <feColorMatrix values="0 0 0 0 0   0 0 0 0 0   0 0 0 0 0  0 0 0 0.5 0" type="matrix" in="shadowBlurOuter1"></feColorMatrix>
        </filter>
        <path d="M1,4 C0.44771525,4 6.76353751e-17,3.55228475 0,3 L0,1 C-6.76353751e-17,0.44771525 0.44771525,1.01453063e-16 1,0 L4,0 C4.55228475,-1.01453063e-16 5,0.44771525 5,1 L5,3 L16,3 L16,4 L1,4 Z" id="path-3"></path>
        <filter x="-43.8%" y="-125.0%" width="187.5%" height="450.0%" filterUnits="objectBoundingBox" id="filter-4">
            <feOffset dx="0" dy="2" in="SourceAlpha" result="shadowOffsetOuter1"></feOffset>
            <feGaussianBlur stdDeviation="2" in="shadowOffsetOuter1" result="shadowBlurOuter1"></feGaussianBlur>
            <feColorMatrix values="0 0 0 0 0   0 0 0 0 0   0 0 0 0 0  0 0 0 0.5 0" type="matrix" in="shadowBlurOuter1"></feColorMatrix>
        </filter>
    </defs>
    <g id="Smart-Infrastructure" stroke="none" stroke-width="1" fill="none" fill-rule="evenodd">
        <g id="24-Smart-Infrastructure-/-03-Sctructure-/-03_32_search-by-station" transform="translate(-184.000000, -345.000000)">
            <g id="station-list" transform="translate(116.000000, 217.000000)">
                <g id="Group-8" transform="translate(68.000000, 128.000000)">
                    <path d="M20,0.5 C20.9664983,0.5 21.8414983,0.891750844 22.4748737,1.52512627 C23.1082492,2.15850169 23.5,3.03350169 23.5,4 L23.5,4 L23.5,20 C23.5,20.9664983 23.1082492,21.8414983 22.4748737,22.4748737 C21.8414983,23.1082492 20.9664983,23.5 20,23.5 L20,23.5 L4,23.5 C3.03350169,23.5 2.15850169,23.1082492 1.52512627,22.4748737 C0.891750844,21.8414983 0.5,20.9664983 0.5,20 L0.5,20 L0.5,4 C0.5,3.03350169 0.891750844,2.15850169 1.52512627,1.52512627 C2.15850169,0.891750844 3.03350169,0.5 4,0.5 L4,0.5 Z" id="Rectangle-6-Copy-18" stroke="#3CE5DB" fill-opacity="0.2" fill="#3CE5DB"></path>
                    <g id="station-toolbox-ic">
                        <rect id="Rectangle" x="0" y="0" width="24" height="24"></rect>
                        <g id="Group-33" transform="translate(4.000000, 4.000000)">
                            <g id="Mask" fill-rule="nonzero">
                                <use fill="black" fill-opacity="1" filter="url(#filter-2)" xlink:href="#path-1"></use>
                                <use fill="#3CE5DB" xlink:href="#path-1"></use>
                            </g>
                            <g id="Group-34" transform="translate(0.000000, 9.000000)">
                                <g id="Combined-Shape">
                                    <use fill="black" fill-opacity="1" filter="url(#filter-4)" xlink:href="#path-3"></use>
                                    <use fill="#3CE5DB" fill-rule="evenodd" xlink:href="#path-3"></use>
                                </g>
                                <line x1="0.5" y1="6.5" x2="4.5" y2="2.5" id="Path-7" stroke="#3CE5DB" stroke-linecap="round"></line>
                                <line x1="3.5" y1="6.5" x2="6.5" y2="3.5" id="Path-7" stroke="#3CE5DB" stroke-linecap="round"></line>
                                <line x1="6.5" y1="6.5" x2="9.5" y2="3.5" id="Path-7" stroke="#3CE5DB" stroke-linecap="round"></line>
                                <line x1="9.5" y1="6.5" x2="12.5" y2="3.5" id="Path-7" stroke="#3CE5DB" stroke-linecap="round"></line>
                                <line x1="12.5" y1="6.5" x2="15.5" y2="3.5" id="Path-7" stroke="#3CE5DB" stroke-linecap="round"></line>
                            </g>
                        </g>
                    </g>
                </g>
            </g>
        </g>
    </g>
</svg>