<svg width="24" height="24" viewBox="0 0 24 24" fill="none" xmlns="http://www.w3.org/2000/svg">
<path fill-rule="evenodd" clip-rule="evenodd" d="M16.4089 4.25778C16.5778 4.08889 16.8089 4 17.0311 4C17.2622 4 17.4844 4.08 17.6622 4.25778L19.7422 6.33778C20.0889 6.66667 20.0889 7.24444 19.7422 7.59111L18.1156 9.21778L14.7822 5.88444L16.4089 4.25778ZM4 16.6667L13.8311 6.83556L17.1644 10.1689L7.33333 20H4V16.6667Z" fill="#7E7E7E"/>
<mask id="mask0" mask-type="alpha" maskUnits="userSpaceOnUse" x="4" y="4" width="17" height="16">
<path fill-rule="evenodd" clip-rule="evenodd" d="M16.4089 4.25778C16.5778 4.08889 16.8089 4 17.0311 4C17.2622 4 17.4844 4.08 17.6622 4.25778L19.7422 6.33778C20.0889 6.66667 20.0889 7.24444 19.7422 7.59111L18.1156 9.21778L14.7822 5.88444L16.4089 4.25778ZM4 16.6667L13.8311 6.83556L17.1644 10.1689L7.33333 20H4V16.6667Z" fill="white"/>
</mask>
<g mask="url(#mask0)">
<rect width="24" height="24" rx="2" fill="#7E7E7E"/>
</g>
</svg>
