<svg width="24" height="24" viewBox="0 0 24 24" fill="none" xmlns="http://www.w3.org/2000/svg">
<path fill-rule="evenodd" clip-rule="evenodd" d="M11 11H3V3H11V11ZM4 21C3.44772 21 3 20.5523 3 20V13H11V21H4ZM13 21H20C20.5523 21 21 20.5523 21 20V13H13V21ZM13 11V3H21V11H13Z" fill="#dcbc65"/>
<mask id="mask0" mask-type="alpha" maskUnits="userSpaceOnUse" x="3" y="3" width="18" height="18">
<path fill-rule="evenodd" clip-rule="evenodd" d="M11 11H3V3H11V11ZM4 21C3.44772 21 3 20.5523 3 20V13H11V21H4ZM13 21H20C20.5523 21 21 20.5523 21 20V13H13V21ZM13 11V3H21V11H13Z" fill="white"/>
</mask>
<g mask="url(#mask0)">
<rect width="24" height="24" rx="2" fill="#dcbc65"/>
</g>
</svg>
