<?xml version="1.0" encoding="UTF-8"?>
<svg width="20px" height="20px" viewBox="0 0 20 20" version="1.1" xmlns="http://www.w3.org/2000/svg" xmlns:xlink="http://www.w3.org/1999/xlink">
    <title>cogs-ic</title>
    <g id="Project-Management" stroke="none" stroke-width="1" fill="none" fill-rule="evenodd">
        <g id="26-PM-/-01_Home-/-01_14-Service-project" transform="translate(-945.000000, -94.000000)">
            <g id="Group" transform="translate(92.000000, 80.000000)">
                <g id="Group-2" transform="translate(837.000000, 6.000000)">
                    <g id="cogs-ic" transform="translate(16.000000, 8.000000)">
                        <rect id="Rectangle" x="0" y="7.38964445e-13" width="20" height="20"></rect>
                        <path d="M6.31796073,5.64631349 C6.43650655,5.92822783 6.55429316,6.21043154 6.66850061,6.49411825 C6.68062241,6.52423607 6.6893594,6.55424239 6.69487009,6.58379535 L7.70010584,9.00562452 C7.63387929,9.00189163 7.56716055,9 7.5,9 C5.56700338,9 4,10.5670034 4,12.5 C4,14.4329966 5.56700338,16 7.5,16 C9.43299662,16 11,14.4329966 11,12.5 C11,12.4913199 10.9999684,12.4826471 10.9999053,12.4739819 L11.0468679,12.5 L13.5099935,13.3381188 C13.8008086,13.4559268 14.0921659,13.5727581 14.3799803,13.6976193 C14.9078147,13.9265798 15.1355427,14.4896489 14.9180821,15.0203814 C14.7805198,15.3560815 14.6409329,15.6909498 14.4996468,16.0250946 C14.3021428,16.4921305 13.7018939,16.7350528 13.2350858,16.5394779 C13.0434024,16.459179 12.8521166,16.3778311 12.6583725,16.3028131 C12.6259071,16.2902619 12.56188,16.2927577 12.5460089,16.3137367 C12.1793809,16.7981345 11.750172,17.2190166 11.2595752,17.5883917 C11.3447879,17.7949263 11.42512,17.9991099 11.5127188,18.2000742 C11.7364338,18.7133725 11.4979684,19.3081271 10.9800761,19.5234874 C10.682645,19.6471549 10.3861539,19.7731013 10.0886144,19.896588 C9.9996056,19.9335183 9.9086084,19.965674 9.81851502,20 L9.40228507,20 C9.3931745,19.9930191 9.38507622,19.9823849 9.37480876,19.9795997 C9.03674168,19.8870389 8.8075314,19.6743553 8.67676585,19.3510255 C8.60962966,19.1850744 8.53746819,19.0211127 8.47228426,18.854402 C8.44639868,18.7881734 8.41570475,18.7609007 8.33765033,18.7714987 C7.77384367,18.8481083 7.20924164,18.8479636 6.64539882,18.7703051 C6.58028719,18.7613348 6.55140091,18.7797095 6.52790144,18.8401507 C6.45711378,19.022234 6.37721556,19.2007725 6.30537947,19.3824578 C6.21763604,19.6042927 6.06572097,19.7694842 5.86109476,19.8844347 C5.77411054,19.9333013 5.67581043,19.9620569 5.58264404,20 L5.1908897,20 C5.11504062,19.9735231 5.03774542,19.9505547 4.96355938,19.9200266 C4.66233225,19.7961058 4.36298507,19.6675552 4.06121564,19.5450089 C3.4881538,19.3122867 3.25189368,18.7437558 3.4923837,18.1704866 C3.56172524,18.0052227 3.62817452,17.8386929 3.69935986,17.6742248 C3.7247393,17.6155921 3.72961996,17.5796746 3.66750903,17.5321825 C3.21563218,17.1863545 2.81245347,16.7902855 2.47120492,16.3337029 C2.42829127,16.2763 2.39329512,16.2682701 2.32926809,16.2970981 C2.15479351,16.3756247 1.97684825,16.4463746 1.80042141,16.5205607 C1.29995487,16.7309655 0.701224372,16.5091669 0.498658886,16.027735 C0.325232752,15.61557 0.165725537,15.1975816 -8.8817842e-16,14.7821612 L-8.8817842e-16,14.4637145 C0.101698503,14.0307513 0.383330688,13.7713352 0.793161554,13.6294014 C0.945871996,13.5765198 1.09287026,13.5070721 1.24384536,13.4446053 C1.15198048,12.8177673 1.15216125,12.2007315 1.24370074,11.5787766 C1.03650767,11.4920393 0.835026775,11.4054105 0.631738228,11.3231583 C0.386078319,11.2237974 0.2057108,11.0549527 0.0913587331,10.8176729 C0.0531811225,10.738423 0.0300070235,10.6519027 -8.8817842e-16,10.5687101 L0.000180765202,10.2257035 C0.162363305,9.81766193 0.320532856,9.40795654 0.487776821,9.00197674 C0.694789131,8.49949354 1.29955719,8.2689054 1.81238807,8.48918489 C1.98841722,8.56478163 2.1646633,8.64019752 2.34383776,8.70769202 C2.37695395,8.72017091 2.44372861,8.70866863 2.4626005,8.68371086 C2.80827246,8.22632426 3.21109964,7.82731072 3.67417709,7.47061864 L3.718,7.373 L3.61679084,7.12479489 C3.57607799,7.02570077 3.53497199,6.92661117 3.49263678,6.82804604 C3.25558129,6.27611751 3.49672207,5.69225027 4.05264737,5.46763029 C4.35488679,5.34551805 4.65408935,5.21591847 4.95513572,5.09080406 C5.51800241,4.85681588 6.08264059,5.0866806 6.31796073,5.64631349 Z" id="Combined-Shape" fill="#1F1F1F"></path>
                        <path d="M14.5255423,-2.04281037e-13 C14.5354831,0.00702693537 14.5444931,0.0172444792 14.5555137,0.0206629883 C14.9865809,0.154782495 15.2041623,0.453636157 15.2044602,0.912362095 C15.2045346,1.01085314 15.2112363,1.10972402 15.204758,1.20772128 C15.1993967,1.28881591 15.235623,1.31460667 15.3050227,1.33940985 C15.553953,1.42832907 15.8008356,1.52347757 16.0461173,1.62238643 C16.1614607,1.66891614 16.2813092,1.78586714 16.3810898,1.76771105 C16.4831416,1.74913716 16.5650883,1.60624347 16.6523964,1.51436155 C16.9945918,1.15431657 17.5173605,1.13616049 17.8717307,1.48032839 C18.0752385,1.67799418 18.272752,1.88234506 18.4670636,2.08946873 C18.7008035,2.33860207 18.7750061,2.72975548 18.6112988,3.0296347 C18.509731,3.21567756 18.3510873,3.37053602 18.210203,3.53226948 C18.1639986,3.58533234 18.1547279,3.61826398 18.1837685,3.68560861 C18.3202223,4.0020486 18.4582025,4.31860254 18.5742534,4.64305704 C18.6181122,4.76562958 18.6659548,4.80235956 18.7914252,4.80194175 C18.9779554,4.80129603 19.1729744,4.80353705 19.3493032,4.85667588 C19.6452198,4.945823 19.8009967,5.19168977 19.8963841,5.47926235 L19.8963841,6.63688348 L19.8963841,6.63688348 C19.8220326,6.90823714 19.6865841,7.1385307 19.4239525,7.24993611 C19.2923389,7.30577176 19.1419233,7.3221806 18.9980605,7.33904525 C18.8781375,7.3531371 18.7553478,7.34193199 18.654897,7.34193199 C18.5182943,7.67561646 18.3921909,7.99566488 18.2563701,8.31138319 C18.1551375,8.54669056 18.1469837,8.54695645 18.330312,8.72536464 C18.5478934,8.93712229 18.7043033,9.17159403 18.689634,9.4986314 C18.6796932,9.72087247 18.6035546,9.90851064 18.4560431,10.0650404 C18.2668694,10.2657828 18.0731535,10.4622711 17.8766825,10.6556068 C17.5286416,10.9980655 17.0080324,10.9896711 16.6660603,10.6411351 C16.5713804,10.5446572 16.4844075,10.3910142 16.3757657,10.3721364 C16.2681664,10.3534486 16.1398664,10.4771606 16.0167788,10.5287801 C15.7532164,10.6392739 15.4871596,10.7435005 15.2065824,10.8565772 L15.2067685,11.2587078 L15.2067685,11.2587078 C15.2108268,11.7390843 14.859584,12.1277688 14.3912107,12.145507 C14.1059796,12.1562943 13.8197432,12.1561804 13.534512,12.1458489 C13.0531449,12.1283765 12.7051785,11.7495677 12.7062955,11.2594674 C12.7065933,11.1266394 12.7514946,10.9619052 12.6909561,10.8702132 C12.6329865,10.7824335 12.462652,10.7752546 12.3451492,10.7243568 C12.1252222,10.6290944 11.9030241,10.5372504 11.6912137,10.4253892 C11.576317,10.3646917 11.4992476,10.3562594 11.4165935,10.4688802 C11.3617514,10.5435557 11.2895594,10.6056206 11.2217606,10.6696227 C10.8656033,11.0058521 10.3507278,10.9892153 10.011697,10.6348679 C9.84166038,10.4571434 9.66741658,10.2835591 9.49402911,10.1091771 C9.13500497,9.74803063 9.12595769,9.21580674 9.4749293,8.84402489 C9.55333902,8.76049932 9.64131724,8.68589985 9.71473792,8.59831005 C9.73785873,8.57069609 9.74422533,8.50745368 9.73033795,8.47182521 C9.59559686,8.12644184 9.45162233,7.78481884 9.31881728,7.43871378 C9.29245732,7.37000175 9.26535273,7.34599622 9.1951712,7.34705975 C9.04847877,7.34933876 8.89999922,7.35534014 8.75516837,7.33657633 C8.31695266,7.27979109 8.01265894,6.93030551 8.00390952,6.48008786 C7.9985854,6.20584747 7.99884602,5.93137917 8.00379782,5.65713877 C8.01251001,5.17569874 8.37827307,4.80627186 8.84839625,4.7970039 C8.99091874,4.79419313 9.16940695,4.84136855 9.26568782,4.77144105 C9.36014434,4.70284297 9.36483552,4.51174831 9.41982656,4.37914814 C9.51290552,4.15462806 9.60948424,3.93124748 9.71522193,3.71276676 C9.7542034,3.6322039 9.75584159,3.58916867 9.69068632,3.51764586 C9.54656287,3.35940687 9.39007853,3.20037023 9.2937232,3.01227627 C9.13303169,2.69872302 9.22212687,2.31600193 9.46815316,2.06504538 C9.65230056,1.87717931 9.8377883,1.69068065 10.0210794,1.50194096 C10.3659183,1.14683384 10.8895805,1.14174406 11.2395573,1.49506596 C11.3376626,1.59412676 11.4264971,1.70275938 11.4913545,1.77542169 C11.9015721,1.61452386 12.273106,1.47030076 12.6426667,1.32083595 C12.6711489,1.30932697 12.7011948,1.26215154 12.703317,1.22967571 C12.7111728,1.11014184 12.7075241,0.989810318 12.7083432,0.869782665 C12.7111356,0.453028422 12.9546301,0.132410252 13.3499178,0.0238535968 C13.3645871,0.0198273528 13.3772458,0.00812845497 13.3908726,-2.04281037e-13 L14.5255423,-2.04281037e-13 L14.5255423,-2.04281037e-13 Z M13.9556757,3.6178054 C12.6250934,3.61579506 11.5490635,4.70888233 11.54649,6.06511884 C11.5439628,7.41178353 12.621817,8.52029208 13.9356079,8.52211767 C15.2802264,8.52397647 16.3497408,7.43859983 16.3497408,6.07210779 C16.3497408,4.70462819 15.2915821,3.6198213 13.9556757,3.6178054 Z" id="Combined-Shape" fill="#1F1F1F" fill-rule="nonzero"></path>
                    </g>
                </g>
            </g>
        </g>
    </g>
</svg>