<?xml version="1.0" encoding="utf-8"?>
<!-- Generator: Adobe Illustrator 24.1.0, SVG Export Plug-In . SVG Version: 6.00 Build 0)  -->
<svg version="1.1" xmlns="http://www.w3.org/2000/svg" xmlns:xlink="http://www.w3.org/1999/xlink" x="0px" y="0px" width="394.1px"
	 height="423px" viewBox="0 0 394.1 423" style="enable-background:new 0 0 394.1 423;" xml:space="preserve">
<style type="text/css">
	.st0{fill:#171617;}
	.st1{fill:#2B2C2B;}
	.st2{display:none;}
	.st3{fill:#DCBC63;}
	.st4{clip-path:url(#SVGID_2_);}
	.st5{fill:none;}
	.st6{clip-path:url(#SVGID_2_);fill:#171617;}
	.st7{clip-path:url(#SVGID_4_);}
	.st8{fill:#A0A3A7;}
	.st9{fill:#171617;stroke:#DCBC63;stroke-miterlimit:10;}
	.st10{fill:#22100A;}
	.st11{clip-path:url(#SVGID_6_);}
	.st12{clip-path:url(#SVGID_8_);}
	.st13{clip-path:url(#SVGID_10_);}
	.st14{clip-path:url(#SVGID_12_);}
	.st15{clip-path:url(#SVGID_14_);}
	.st16{clip-path:url(#SVGID_16_);}
	.st17{fill:#D4C9C9;}
	.st18{fill:none;stroke:#DCBC63;stroke-width:2;stroke-miterlimit:10;}
	.st19{opacity:0.5;}
	.st20{fill:#193D1D;}
	.st21{clip-path:url(#SVGID_18_);}
	.st22{clip-path:url(#SVGID_20_);}
	.st23{display:inline;}
	.st24{display:none;opacity:0.2;fill:#DCBC63;stroke:#DCBC63;stroke-miterlimit:10;}
	.st25{display:none;fill:#171617;stroke:#DCBC63;stroke-miterlimit:10;}
	.st26{opacity:5.000000e-02;fill:#DCBC63;stroke:#DCBC63;stroke-miterlimit:10;}
	.st27{opacity:0.5;fill:#DCBC63;}
	.st28{fill:#171617;stroke:#DCBC63;stroke-width:2;stroke-miterlimit:10;}
	.st29{opacity:0.5;fill:#DCBC63;stroke:#DCBC63;stroke-miterlimit:10;}
	.st30{opacity:0.6;fill:none;stroke:#DCBC63;stroke-miterlimit:10;}
	.st31{fill:none;stroke:#DCBC63;stroke-width:0.25;stroke-linecap:round;stroke-miterlimit:10;}
	.st32{fill:#AA934E;}
	.st33{opacity:0.3;fill:#DCBC63;stroke:#DCBC63;stroke-miterlimit:10;}
	.st34{fill:none;stroke:#DCBC63;stroke-miterlimit:10;}
	.st35{fill:none;stroke:#DCBC63;stroke-miterlimit:10;stroke-dasharray:3.0074,3.0074;}
	.st36{fill:none;stroke:#DCBC63;stroke-width:2;stroke-miterlimit:10;stroke-dasharray:2.9089,2.9089;}
	.st37{fill:none;stroke:#DCBC63;stroke-miterlimit:10;stroke-dasharray:2.7479,2.7479;}
	.st38{fill:none;stroke:#DCBC63;stroke-miterlimit:10;stroke-dasharray:2.922,2.922;}
	.st39{fill:none;stroke:#DCBC63;stroke-width:0.5;stroke-linecap:round;stroke-miterlimit:10;}
	.st40{fill:none;stroke:#DCBC63;stroke-width:0.5;stroke-linecap:round;stroke-miterlimit:10;stroke-dasharray:2.8425,2.8425;}
	.st41{fill:none;stroke:#DCBC63;stroke-width:0.5;stroke-linecap:round;stroke-miterlimit:10;stroke-dasharray:3.0041,3.0041;}
	.st42{enable-background:new    ;}
	.st43{opacity:0.1;}
	.st44{fill:none;stroke:#DCBC63;stroke-miterlimit:10;stroke-dasharray:2.9788,2.9788;}
	.st45{fill:none;stroke:#DCBC63;stroke-miterlimit:10;stroke-dasharray:2.9579,2.9579;}
	.st46{fill:none;stroke:#DCBC63;stroke-miterlimit:10;stroke-dasharray:2.9003,2.9003;}
	.st47{fill:none;stroke:#DCBC63;stroke-miterlimit:10;stroke-dasharray:3.0175,3.0175;}
	.st48{fill:none;stroke:#DCBC63;stroke-miterlimit:10;stroke-dasharray:3.0352,3.0352;}
	.st49{fill:none;stroke:#DCBC63;stroke-miterlimit:10;stroke-dasharray:2.8801,2.8801;}
	.st50{fill:#171617;stroke:#DCBC63;stroke-miterlimit:10;stroke-dasharray:3;}
	.st51{fill:#DCBC63;stroke:#DCBC63;stroke-miterlimit:10;stroke-dasharray:3;}
</style>
<g id="Layer_6">
</g>
<g id="Layer_124">
</g>
<g id="Layer_1">
</g>
<g id="Layer_5">
</g>
<g id="Layer_4">
</g>
<g id="Layer_3">
</g>
<g id="Layer_69">
</g>
<g id="Layer_68">
</g>
<g id="Layer_67">
</g>
<g id="Layer_66">
</g>
<g id="Layer_65">
</g>
<g id="Layer_64">
</g>
<g id="Layer_63">
</g>
<g id="Layer_62">
</g>
<g id="Layer_61">
</g>
<g id="Layer_60">
</g>
<g id="Layer_59">
</g>
<g id="Layer_58">
</g>
<g id="Layer_57">
</g>
<g id="Layer_56">
</g>
<g id="Layer_55">
</g>
<g id="Layer_54">
</g>
<g id="Layer_53">
</g>
<g id="Layer_52">
</g>
<g id="Layer_51">
</g>
<g id="Layer_50">
</g>
<g id="Layer_49">
</g>
<g id="Layer_48">
</g>
<g id="Layer_47">
</g>
<g id="Layer_46">
</g>
<g id="Layer_45">
</g>
<g id="Layer_44">
</g>
<g id="Layer_43">
</g>
<g id="Layer_42">
</g>
<g id="Layer_41">
</g>
<g id="Layer_40">
</g>
<g id="Layer_39">
</g>
<g id="Layer_38">
</g>
<g id="Layer_37">
</g>
<g id="Layer_36">
</g>
<g id="Layer_35">
</g>
<g id="Layer_34">
</g>
<g id="Layer_33">
</g>
<g id="Layer_32">
</g>
<g id="Layer_31">
</g>
<g id="Layer_30">
</g>
<g id="Layer_29">
</g>
<g id="Layer_28">
</g>
<g id="Layer_27">
</g>
<g id="Layer_26">
</g>
<g id="Layer_25">
</g>
<g id="Layer_24">
</g>
<g id="Layer_23">
</g>
<g id="Layer_22">
</g>
<g id="Layer_21">
</g>
<g id="Layer_20">
</g>
<g id="Layer_19">
</g>
<g id="Layer_18">
</g>
<g id="Layer_17">
</g>
<g id="Layer_16">
</g>
<g id="Layer_15">
</g>
<g id="Layer_14">
</g>
<g id="Layer_13">
</g>
<g id="Layer_12">
</g>
<g id="Layer_11">
</g>
<g id="Layer_10">
</g>
<g id="Layer_9">
</g>
<g id="Layer_8">
</g>
<g id="Layer_7">
</g>
<g id="Layer_128">
</g>
<g id="Layer_127">
</g>
<g id="Layer_126">
</g>
<g id="Layer_2">
</g>
<g id="Layer_122">
</g>
<g id="Layer_121">
</g>
<g id="Layer_120">
</g>
<g id="Layer_119">
</g>
<g id="Layer_118">
</g>
<g id="Layer_117">
</g>
<g id="Layer_116">
</g>
<g id="Layer_115">
</g>
<g id="Layer_114">
</g>
<g id="Layer_113">
</g>
<g id="Layer_112">
</g>
<g id="Layer_111">
</g>
<g id="Layer_110">
</g>
<g id="Layer_109">
</g>
<g id="Layer_108">
</g>
<g id="Layer_107">
</g>
<g id="Layer_106">
</g>
<g id="Layer_105">
</g>
<g id="Layer_104">
</g>
<g id="Layer_103">
</g>
<g id="Layer_102">
</g>
<g id="Layer_101">
</g>
<g id="Layer_100">
</g>
<g id="Layer_99">
</g>
<g id="Layer_98">
</g>
<g id="Layer_97">
</g>
<g id="Layer_96">
</g>
<g id="Layer_95">
</g>
<g id="Layer_94">
</g>
<g id="Layer_93">
</g>
<g id="Layer_92">
</g>
<g id="Layer_91">
</g>
<g id="Layer_90">
</g>
<g id="Layer_89">
</g>
<g id="Layer_88">
</g>
<g id="Layer_87">
</g>
<g id="Layer_86">
</g>
<g id="Layer_85">
</g>
<g id="Layer_84">
</g>
<g id="Layer_83">
</g>
<g id="Layer_82">
</g>
<g id="Layer_81">
</g>
<g id="Layer_80">
</g>
<g id="Layer_79">
</g>
<g id="Layer_78">
</g>
<g id="Layer_77">
</g>
<g id="Layer_76">
</g>
<g id="Layer_75">
</g>
<g id="Layer_74">
</g>
<g id="Layer_73">
</g>
<g id="Layer_72">
</g>
<g id="Layer_123">
</g>
<g id="Layer_71">
</g>
<g id="Layer_70">
</g>
<g id="Layer_125">
	<g id="Layer_140">
		<g id="Layer_134">
		</g>
	</g>
	<g id="Layer_139">
		<g id="Layer_133">
		</g>
	</g>
	<g id="Layer_138">
		<g id="Layer_132">
		</g>
	</g>
	<g id="Layer_137">
		<g id="Layer_131">
		</g>
	</g>
	<g id="Layer_136">
		<g id="Layer_130">
		</g>
	</g>
	<g id="Layer_135">
		<g id="Layer_129">
		</g>
	</g>
</g>
<g id="Layer_149">
</g>
<g id="Layer_147" class="st2">
</g>
<g id="Layer_148">
</g>
<g id="Layer_146" class="st2">
</g>
<g id="Layer_145">
</g>
<g id="Layer_144">
</g>
<g id="Layer_143">
</g>
<g id="Layer_141">
</g>
<g id="Layer_142">
</g>
<g id="Layer_150">
</g>
<g id="Layer_151">
</g>
<g id="Layer_151_copy">
	<g id="Layer_216">
		<g id="Layer_185">
		</g>
	</g>
	<g id="Layer_215">
		<g id="Layer_184">
		</g>
	</g>
	<g id="Layer_214">
		<g id="Layer_183">
		</g>
	</g>
	<g id="Layer_213">
		<g id="Layer_182">
		</g>
	</g>
	<g id="Layer_212">
		<g id="Layer_181">
		</g>
	</g>
	<g id="Layer_211">
		<g id="Layer_180">
		</g>
	</g>
	<g id="Layer_210">
		<g id="Layer_179">
		</g>
	</g>
	<g id="Layer_209">
		<g id="Layer_178">
		</g>
	</g>
	<g id="Layer_208">
		<g id="Layer_177">
		</g>
	</g>
	<g id="Layer_207">
		<g id="Layer_176">
		</g>
	</g>
	<g id="Layer_206">
		<g id="Layer_175">
		</g>
	</g>
	<g id="Layer_205">
		<g id="Layer_174">
		</g>
	</g>
	<g id="Layer_204">
		<g id="Layer_173">
		</g>
	</g>
	<g id="Layer_203">
		<g id="Layer_172">
		</g>
	</g>
	<g id="Layer_202">
		<g id="Layer_171">
		</g>
	</g>
	<g id="Layer_201">
		<g id="Layer_170">
		</g>
	</g>
	<g id="Layer_200">
		<g id="Layer_169">
		</g>
	</g>
	<g id="Layer_199">
		<g id="Layer_168">
		</g>
	</g>
	<g id="Layer_198">
		<g id="Layer_167">
		</g>
	</g>
	<g id="Layer_197">
		<g id="Layer_166">
		</g>
	</g>
	<g id="Layer_196">
		<g id="Layer_165">
		</g>
	</g>
	<g id="Layer_195">
		<g id="Layer_164">
		</g>
	</g>
	<g id="Layer_194">
		<g id="Layer_163">
		</g>
	</g>
	<g id="Layer_193">
		<g id="Layer_162">
		</g>
	</g>
	<g id="Layer_192">
		<g id="Layer_161">
		</g>
	</g>
	<g id="Layer_191">
		<g id="Layer_159">
		</g>
	</g>
	<g id="Layer_190">
		<g id="Layer_158">
		</g>
	</g>
	<g id="Layer_189">
		<g id="Layer_157">
		</g>
	</g>
	<g id="Layer_188">
		<g id="Layer_156">
		</g>
	</g>
	<g id="Layer_187">
		<g id="Layer_155">
		</g>
	</g>
	<g id="Layer_186">
		<g id="Layer_154">
		</g>
	</g>
</g>
<g id="Layer_230">
</g>
<g id="Layer_229">
</g>
<g id="Layer_228">
</g>
<g id="Layer_227">
</g>
<g id="Layer_226">
</g>
<g id="Layer_225">
</g>
<g id="Layer_224">
</g>
<g id="Layer_222">
</g>
<g id="Layer_221">
	<polygon class="st24" points="29.1,-60.7 236.7,59.2 420.6,-47.1 420.6,-48.2 211.3,-168.1 28,-62 	"/>
</g>
<g id="Layer_220">
</g>
<g id="Layer_219">
</g>
<g id="Layer_218">
</g>
<g id="Layer_223">
</g>
<g id="Layer_160">
</g>
<g id="Layer_235">
</g>
<g id="Layer_234">
</g>
<g id="Layer_233">
</g>
<g id="Layer_232">
</g>
<g id="Layer_231">
	<g id="Layer_236">
	</g>
</g>
<g id="Layer_240">
</g>
<g id="Layer_239">
</g>
<g id="Layer_238">
</g>
<g id="Layer_237">
</g>
<g id="Layer_217">
	<g>
		<path class="st26" d="M185.9,66.3c0.1-22.1,0.1-44.2,0.2-66.3c67.7,39.1,135.5,78.2,203.2,117.3c0,22.2,0,44.4,0,66.5L185.9,66.3z
			"/>
		<path class="st27" d="M0.5,107.5c1.9-1.1,3.9-2.2,5.8-3.4c0,21.7,0,43.4,0,65.1l203.3,117.4l0,6.3L0.5,172.1
			C0.5,150.6,0.5,129,0.5,107.5z"/>
		<path class="st9" d="M46.1,193.3c21-12,42.1-24,63.1-35.9"/>
		<path class="st9" d="M123.5,238c25.8-14.6,51.7-29.2,77.5-43.9"/>
		<path class="st28" d="M185.7,202.5c6.8-3.8,13.6-7.7,20.3-11.5"/>
		<path class="st28" d="M91.7,147.1c6.8-3.8,13.6-7.7,20.3-11.5"/>
		<path class="st28" d="M265,224.4c6.8-3.8,13.6-7.7,20.3-11.5"/>
		<path class="st28" d="M147.7,156.9c6.8-3.8,13.6-7.7,20.3-11.5"/>
		<path class="st9" d="M245.1,190.1c25.8-14.6,51.7-29.2,77.5-43.9"/>
		<path class="st9" d="M195.1,108.2c10.6-6.1,21.2-12.3,31.8-18.4"/>
		<path class="st9" d="M170.4,122.4c10.6-6.1,21.2-12.3,31.8-18.4"/>
		<path class="st9" d="M167.7,145.4c25.8-14.6,51.7-29.2,77.5-43.9"/>
		<path class="st29" d="M209.1,285.6l179.4-103.6c0.1-22.2,0.2-44.5,0.3-66.7c1.6,1,3.3,1.9,4.9,2.9c0.1,22.3,0.2,44.6,0.2,67
			L209.1,292L209.1,285.6z"/>
		<path class="st30" d="M6.3,105.1c0,21.7,0,43.4,0,65.2l179.6-104c0.1-22.1,0.1-44.2,0.2-66.3C126.1,35,66.2,70.1,6.3,105.1z"/>
		<path class="st26" d="M6.3,105.1c0,21.7,0,43.4,0,65.2l179.6-104c0.1-22.1,0.1-44.2,0.2-66.3C126.1,35,66.2,70.1,6.3,105.1z"/>
		<path class="st30" d="M208.4,219.6c0,22.3,0.1,44.6,0.1,66.9c60.3-34.2,120.5-68.4,180.8-102.6c0-22.2,0-44.4,0-66.5
			C329,151.4,268.7,185.5,208.4,219.6z"/>
		<path class="st30" d="M6.3,170.2c0-21.7,0-43.4,0-65.1c67.4,38.2,134.7,76.3,202.1,114.5c0,22.3,0.1,44.6,0.1,66.9
			C141.1,247.7,73.7,209,6.3,170.2z"/>
		<path class="st26" d="M209,220.9c0.1,22.1,0.1,44.2,0.2,66.3C269.8,253.1,330.4,219.1,391,185c0-22.2,0-44.4,0-66.5
			C330.3,152.6,269.7,186.7,209,220.9z"/>
		<path class="st26" d="M8,171.3c0-21.7,0-43.4,0-65.1c67,38.2,134,76.4,201,114.6c0.1,22.1,0.1,44.2,0.2,66.3
			C142.1,248.6,75.1,210,8,171.3z"/>
		<path class="st30" d="M208.5,286.5c0.1,22.1,0.1,44.2,0.2,66.3c60.2-33.8,120.4-67.6,180.5-101.4c0-22.5,0-45,0-67.5
			C329,218.1,268.8,252.3,208.5,286.5z"/>
		<path class="st30" d="M7.5,237c0-21.7,0-43.4,0-65.1c67,38.2,134,76.4,201,114.6c0.1,22.1,0.1,44.2,0.2,66.3
			C141.7,314.2,74.6,275.6,7.5,237z"/>
		<path class="st30" d="M208,352.5c0.1,22.1,0.1,44.2,0.2,66.3c60.2-34.1,120.3-68.2,180.5-102.4c0.1-22,0.2-44,0.3-66
			C328.7,284.4,268.3,318.5,208,352.5z"/>
		<path class="st30" d="M7,303c0-21.7,0-43.4,0-65.1c67,38.2,134,76.4,201,114.6c0.1,22.1,0.1,44.2,0.2,66.3
			C141.1,380.2,74.1,341.6,7,303z"/>
		<path class="st9" d="M91.7,147.1c24.9,14.1,49.7,28.3,74.6,42.4"/>
		<path class="st9" d="M187.2,157.1c32.8,18.7,65.6,37.4,98.3,56.1"/>
		<path class="st9" d="M110,111.8c13.1,7.5,26.3,15.1,39.4,22.6"/>
		<path class="st9" d="M171.8,76.1c13.1,7.5,26.3,15.1,39.4,22.6"/>
		<path class="st9" d="M163.7,80.8c13.1,7.5,26.3,15.1,39.4,22.6"/>
		<path class="st9" d="M155.7,85.5c13.1,7.5,26.3,15.1,39.4,22.6"/>
		<path class="st9" d="M179.8,71.3c13.1,7.5,26.3,15.1,39.4,22.6"/>
		<path class="st9" d="M147,90.3c13.1,7.5,26.3,15.1,39.4,22.6"/>
		<path class="st9" d="M139,95.1c13.1,7.5,26.3,15.1,39.4,22.6"/>
		<path class="st9" d="M131,99.8c13.1,7.5,26.3,15.1,39.4,22.6"/>
		<path class="st9" d="M155.1,85.6c13.1,7.5,26.3,15.1,39.4,22.6"/>
		<path class="st31" d="M186.1,156.8c0,5.2-8.5,9.4-18.9,9.4s-18.9-4.2-18.9-9.4h-1c0,5.5,8.9,9.9,19.9,9.9c11,0,19.9-4.5,19.9-9.9
			H186.1z"/>
		<path class="st31" d="M304.2,224.4c0,5.2-8.5,9.4-18.9,9.4s-18.9-4.2-18.9-9.4h-1c0,5.5,8.9,9.9,19.9,9.9c11,0,19.9-4.5,19.9-9.9
			H304.2z"/>
		<path class="st31" d="M204.5,190.2c0-5.2-8.5-9.4-18.9-9.4s-18.9,4.2-18.9,9.4h-1c0-5.5,8.9-9.9,19.9-9.9c11,0,19.9,4.5,19.9,9.9
			H204.5z"/>
		<path class="st31" d="M111.1,137.3c0-5.2-8.5-9.4-18.9-9.4s-18.9,4.2-18.9,9.4h-1c0-5.5,8.9-9.9,19.9-9.9c11,0,19.9,4.5,19.9,9.9
			H111.1z"/>
		<g>
			<g>
				<g>
					<polygon class="st32" points="35.7,185.9 90.4,217.5 84.1,220.3 29.3,188.7 					"/>
				</g>
				<g>
					<path class="st32" d="M36.1,185.4l55.8,32.2L84,221l-0.3-0.2l-55.8-32.2l7.9-3.4L36.1,185.4z M29.3,188.7l54.8,31.6l6.4-2.8
						l-54.8-31.6L29.3,188.7"/>
				</g>
			</g>
		</g>
		<path class="st30" d="M185.9,66.3c0.1-22.1,0.1-44.2,0.2-66.3c67.7,39.1,135.5,78.2,203.2,117.3c0,22.2,0,44.4,0,66.5L185.9,66.3z
			"/>
		<g>
			<g>
				<g>
					<polygon class="st32" points="135.7,242.9 190.4,274.5 184.1,277.3 129.3,245.7 					"/>
				</g>
				<g>
					<path class="st32" d="M136.1,242.4l55.8,32.2L184,278l-0.3-0.2l-55.8-32.2l7.9-3.4L136.1,242.4z M129.3,245.7l54.8,31.6
						l6.4-2.8l-54.8-31.6L129.3,245.7"/>
				</g>
			</g>
		</g>
		<path class="st33" d="M1.5,166.8l207.6,120c61.7-35.3,123.3-70.5,185-105.8c-70.1-40.5-140.3-81-210.4-121.5l0,0
			C123,95.2,62.2,131,1.5,166.8z"/>
		<path class="st3" d="M60.4,204.7C42.7,215,25,225.2,7.3,235.4c0-20.5,0-40.9,0-61.4c-0.3-0.2-0.7-0.4-1-0.6c0,21.2,0,42.5,0,63.7
			c18.4-10.6,36.7-21.3,55.1-31.9C61,205.1,60.7,204.9,60.4,204.7z"/>
		<path class="st3" d="M59.3,266.4c-0.1-0.1-17.3,9.9-51.8,30c0-20.1-0.1-40.2-0.1-60.3c-0.4,0.4-0.7,0.8-1.1,1.1
			c0,20.4,0,40.7-0.1,61.1C41.7,277.2,59.4,266.5,59.3,266.4z"/>
		<path class="st3" d="M387.9,185.1c0.1,22.6,0.3,45.2,0.4,67.8l-55.5-32.1l-1,0.6l57.5,33.3c0-23.6,0-47.2,0-70.8
			C388.8,184.3,388.3,184.7,387.9,185.1z"/>
		<path class="st3" d="M388.3,247.4l0,64.2c-17-9.8-34-19.6-51-29.4c-0.3,0.2-0.7,0.4-1,0.6c17.7,10.2,35.3,20.4,53,30.6l0-66.5
			L388.3,247.4z"/>
		<g>
			<path class="st0" d="M30.3,246.9c17.4-10,34.8-19.9,52.2-29.9"/>
			<g>
				<path class="st34" d="M30.3,246.9c0.4-0.2,0.9-0.5,1.3-0.7"/>
				<path class="st35" d="M34.3,244.6c15.2-8.7,30.5-17.4,45.7-26.1"/>
				<path class="st34" d="M81.2,217.8c0.4-0.2,0.9-0.5,1.3-0.7"/>
			</g>
		</g>
		<g>
			<path class="st0" d="M264.5,287.4c6.8-3.8,13.6-7.7,20.3-11.5"/>
			<g>
				<path class="st18" d="M264.5,287.4c0.4-0.2,0.9-0.5,1.3-0.7"/>
				<path class="st36" d="M268.3,285.2c4.6-2.6,9.3-5.3,13.9-7.9"/>
				<path class="st18" d="M283.5,276.6c0.4-0.2,0.9-0.5,1.3-0.7"/>
			</g>
		</g>
		<g>
			<g>
				<path class="st34" d="M256.2,259.6c0.4,0.2,0.9,0.5,1.3,0.7"/>
				<path class="st37" d="M259.9,261.7c7.6,4.3,15.1,8.6,22.7,13"/>
				<path class="st34" d="M283.8,275.4c0.4,0.2,0.9,0.5,1.3,0.7c-0.4,0.2-0.9,0.5-1.3,0.7"/>
				<path class="st38" d="M281.2,278.2c-4.7,2.6-9.4,5.1-14.1,7.7"/>
				<path class="st34" d="M265.8,286.6c-0.4,0.2-0.9,0.5-1.3,0.7"/>
			</g>
		</g>
		<g class="st19">
			<path class="st3" d="M0.5,165.5c1.8,0.8,3.6,1.7,5.3,2.5c0,21.7,0,43.4,0,65.1l203.3,117.4l0,6.3L0,236.1
				C0.2,212.6,0.3,189,0.5,165.5z"/>
		</g>
		<path class="st9" d="M123,300.9c17.6-9.9,35.1-19.9,52.7-29.8"/>
		<path class="st29" d="M208.6,349.6L388,246c0-20.8,0-41.5,0-62.3c2-0.9,4.1-1.9,6.1-2.8c-0.2,22.7-0.4,45.5-0.6,68.2L208.6,355.9
			L208.6,349.6z"/>
		<g>
			<g>
				<path class="st39" d="M304.5,288.8c0.1-0.5,0.2-1,0.2-1.5h-1c0,0.5-0.1,1-0.2,1.5"/>
				<path class="st40" d="M302,291.3c-3,3.3-9.6,5.5-17.2,5.5c-8.5,0-15.7-2.8-18-6.7"/>
				<path class="st39" d="M266.2,288.8c-0.2-0.5-0.2-1-0.2-1.5h-1c0,0.5,0.1,1,0.2,1.5"/>
				<path class="st41" d="M266.7,291.4c3.1,3.5,10.1,5.9,18.1,5.9c9,0,16.6-3,19-7.1"/>
			</g>
		</g>
		<g>
			<g>
				<g class="st42">
					<g>
						<polygon class="st32" points="82.9,282.8 83.6,283.2 84.3,282.9 84.7,283.1 85,283.3 83.5,283.9 82.2,283.2 82.5,283 						
							"/>
					</g>
					<g>
						<polygon class="st32" points="87.6,281.5 87.9,281.7 88.2,281.9 86.6,282.6 86.3,282.4 86,282.2 						"/>
					</g>
					<g>
						<polygon class="st32" points="79,280.6 80.9,281.7 80.6,281.9 80.2,282 78.2,280.9 78.6,280.7 						"/>
					</g>
					<g>
						<polygon class="st32" points="90.1,279.7 91.4,280.5 89.9,281.2 89.5,281 89.2,280.8 90,280.5 89.3,280.1 89.7,279.9 						
							"/>
					</g>
					<g>
						<polygon class="st32" points="75,278.3 77,279.4 76.6,279.6 76.2,279.7 74.2,278.6 74.6,278.4 						"/>
					</g>
					<g>
						<polygon class="st32" points="86.1,277.5 88.1,278.6 87.7,278.8 87.3,278.9 85.3,277.8 85.7,277.6 						"/>
					</g>
					<g>
						<polygon class="st32" points="71,276 73,277.1 72.6,277.3 72.3,277.5 70.3,276.3 70.7,276.2 						"/>
					</g>
					<g>
						<polygon class="st32" points="82.1,275.2 84.1,276.3 83.7,276.5 83.4,276.7 81.4,275.5 81.8,275.3 						"/>
					</g>
					<g>
						<polygon class="st32" points="67.1,273.7 69.1,274.9 68.7,275 68.3,275.2 66.3,274 66.7,273.9 						"/>
					</g>
					<g>
						<polygon class="st32" points="78.2,272.9 80.2,274 79.8,274.2 79.4,274.4 77.4,273.2 77.8,273.1 						"/>
					</g>
					<g>
						<polygon class="st32" points="63.1,271.4 65.1,272.6 64.7,272.7 64.3,272.9 62.4,271.7 62.7,271.6 						"/>
					</g>
					<g>
						<polygon class="st32" points="74.2,270.6 76.2,271.8 75.8,271.9 75.4,272.1 73.5,270.9 73.8,270.8 						"/>
					</g>
					<g>
						<polygon class="st32" points="59.2,269.1 61.1,270.3 60.8,270.4 60.4,270.6 58.4,269.5 58.8,269.3 						"/>
					</g>
					<g>
						<polygon class="st32" points="70.3,268.3 72.2,269.5 71.9,269.6 71.5,269.8 69.5,268.7 69.9,268.5 						"/>
					</g>
					<g>
						<polygon class="st32" points="55.2,266.9 57.2,268 56.8,268.2 56.4,268.3 54.4,267.2 54.8,267 						"/>
					</g>
					<g>
						<polygon class="st32" points="66.3,266 68.3,267.2 67.9,267.4 67.5,267.5 65.5,266.4 65.9,266.2 						"/>
					</g>
					<g>
						<polygon class="st32" points="51.2,264.6 53.2,265.7 52.8,265.9 52.5,266 50.5,264.9 50.9,264.7 						"/>
					</g>
					<g>
						<polygon class="st32" points="62.3,263.8 64.3,264.9 63.9,265.1 63.6,265.2 61.6,264.1 61.9,263.9 						"/>
					</g>
					<g>
						<polygon class="st32" points="47.3,262.3 49.3,263.4 48.9,263.6 48.5,263.8 46.5,262.6 46.9,262.5 						"/>
					</g>
					<g>
						<polygon class="st32" points="58.4,261.5 60.3,262.6 60,262.8 59.6,262.9 57.6,261.8 58,261.6 						"/>
					</g>
					<g>
						<polygon class="st32" points="43.3,260 45.3,261.1 44.9,261.3 44.5,261.5 42.6,260.3 42.9,260.2 						"/>
					</g>
					<g>
						<polygon class="st32" points="54.4,259.2 56.4,260.3 56,260.5 55.6,260.7 53.6,259.5 54,259.4 						"/>
					</g>
					<g>
						<polygon class="st32" points="39.4,257.7 41.3,258.9 41,259 40.6,259.2 38.6,258 39,257.9 						"/>
					</g>
					<g>
						<polygon class="st32" points="50.4,256.9 52.4,258.1 52,258.2 51.7,258.4 49.7,257.2 50.1,257.1 						"/>
					</g>
					<g>
						<polygon class="st32" points="35.4,255.4 37.4,256.6 37,256.7 36.6,256.9 34.6,255.8 35,255.6 						"/>
					</g>
					<g>
						<polygon class="st32" points="46.5,254.6 48.5,255.8 48.1,255.9 47.7,256.1 45.7,255 46.1,254.8 						"/>
					</g>
					<g>
						<polygon class="st32" points="31.4,253.2 33.4,254.3 33,254.5 32.7,254.6 30.7,253.5 31.1,253.3 						"/>
					</g>
					<g>
						<polygon class="st32" points="42.5,252.3 44.5,253.5 44.1,253.6 43.7,253.8 41.8,252.7 42.1,252.5 						"/>
					</g>
					<g>
						<polygon class="st32" points="28.9,250.9 29.2,251.1 29.6,251.3 28.8,251.6 29.5,252 29.1,252.2 28.7,252.3 27.4,251.6 						
							"/>
					</g>
					<g>
						<polygon class="st32" points="38.6,250.1 40.5,251.2 40.2,251.4 39.8,251.5 37.8,250.4 38.2,250.2 						"/>
					</g>
					<g>
						<polygon class="st32" points="32.1,249.5 32.5,249.7 32.8,249.9 31.2,250.6 30.8,250.4 30.5,250.2 						"/>
					</g>
					<g>
						<polygon class="st32" points="35.2,248.9 35.8,249.2 36.2,249.1 38.2,250.2 37.8,250.4 39.8,251.5 40.2,251.4 42.1,252.5 
							41.8,252.7 43.7,253.8 44.1,253.6 46.1,254.8 45.7,255 47.7,256.1 48.1,255.9 50.1,257.1 49.7,257.2 51.7,258.4 52,258.2 
							54,259.4 53.6,259.5 55.6,260.7 56,260.5 58,261.6 57.6,261.8 59.6,262.9 60,262.8 61.9,263.9 61.6,264.1 63.6,265.2 
							63.9,265.1 65.9,266.2 65.5,266.4 67.5,267.5 67.9,267.4 69.9,268.5 69.5,268.7 71.5,269.8 71.9,269.6 73.8,270.8 73.5,270.9 
							75.4,272.1 75.8,271.9 77.8,273.1 77.4,273.2 79.4,274.4 79.8,274.2 81.8,275.3 81.4,275.5 83.4,276.7 83.7,276.5 85.7,277.6 
							85.3,277.8 87.3,278.9 87.7,278.8 89.7,279.9 89.3,280.1 90,280.5 89.2,280.8 89.5,281 87.9,281.7 87.6,281.5 86,282.2 
							86.3,282.4 84.7,283.1 84.3,282.9 83.6,283.2 82.9,282.8 82.5,283 80.6,281.9 80.9,281.7 79,280.6 78.6,280.7 76.6,279.6 
							77,279.4 75,278.3 74.6,278.4 72.6,277.3 73,277.1 71,276 70.7,276.2 68.7,275 69.1,274.9 67.1,273.7 66.7,273.9 64.7,272.7 
							65.1,272.6 63.1,271.4 62.7,271.6 60.8,270.4 61.1,270.3 59.2,269.1 58.8,269.3 56.8,268.2 57.2,268 55.2,266.9 54.8,267 
							52.8,265.9 53.2,265.7 51.2,264.6 50.9,264.7 48.9,263.6 49.3,263.4 47.3,262.3 46.9,262.5 44.9,261.3 45.3,261.1 43.3,260 
							42.9,260.2 41,259 41.3,258.9 39.4,257.7 39,257.9 37,256.7 37.4,256.6 35.4,255.4 35,255.6 33,254.5 33.4,254.3 31.4,253.2 
							31.1,253.3 29.1,252.2 29.5,252 28.8,251.6 29.6,251.3 29.2,251.1 30.8,250.4 31.2,250.6 32.8,249.9 32.5,249.7 34.1,249 
							34.4,249.2 						"/>
					</g>
					<g>
						<polygon class="st32" points="35.3,248.2 36.6,248.9 36.2,249.1 35.8,249.2 35.2,248.9 34.4,249.2 34.1,249 33.8,248.8 						
							"/>
					</g>
				</g>
			</g>
		</g>
		<g>
			<g>
				<g>
					<polygon class="st32" points="179,338.6 181,339.7 180.6,339.9 180.2,340 178.2,338.9 178.6,338.7 					"/>
				</g>
				<g class="st42">
					<g>
						<polygon class="st32" points="187.6,339.5 187.9,339.7 188.2,339.9 186.6,340.6 186.3,340.4 186,340.2 						"/>
					</g>
					<g>
						<polygon class="st32" points="190.1,337.7 191.4,338.5 189.9,339.2 189.5,339 189.2,338.8 190,338.4 189.3,338.1 189.7,337.9 
													"/>
					</g>
					<g>
						<polygon class="st32" points="175,336.3 177,337.4 176.6,337.6 176.2,337.7 174.3,336.6 174.6,336.4 						"/>
					</g>
					<g>
						<polygon class="st32" points="186.1,335.5 188.1,336.6 187.7,336.8 187.3,336.9 185.3,335.8 185.7,335.6 						"/>
					</g>
					<g>
						<polygon class="st32" points="171.1,334 173,335.1 172.6,335.3 172.3,335.5 170.3,334.3 170.7,334.1 						"/>
					</g>
					<g>
						<polygon class="st32" points="182.1,333.2 184.1,334.3 183.7,334.5 183.4,334.6 181.4,333.5 181.8,333.3 						"/>
					</g>
					<g>
						<polygon class="st32" points="167.1,331.7 169.1,332.8 168.7,333 168.3,333.2 166.3,332 166.7,331.9 						"/>
					</g>
					<g>
						<polygon class="st32" points="178.2,330.9 180.2,332 179.8,332.2 179.4,332.4 177.4,331.2 177.8,331.1 						"/>
					</g>
					<g>
						<polygon class="st32" points="163.1,329.4 165.1,330.6 164.7,330.7 164.4,330.9 162.4,329.7 162.7,329.6 						"/>
					</g>
					<g>
						<polygon class="st32" points="174.2,328.6 176.2,329.8 175.8,329.9 175.4,330.1 173.5,328.9 173.8,328.8 						"/>
					</g>
					<g>
						<polygon class="st32" points="159.2,327.1 161.1,328.3 160.8,328.4 160.4,328.6 158.4,327.5 158.8,327.3 						"/>
					</g>
					<g>
						<polygon class="st32" points="170.3,326.3 172.2,327.5 171.9,327.6 171.5,327.8 169.5,326.6 169.9,326.5 						"/>
					</g>
					<g>
						<polygon class="st32" points="155.2,324.8 157.2,326 156.8,326.2 156.4,326.3 154.4,325.2 154.8,325 						"/>
					</g>
					<g>
						<polygon class="st32" points="166.3,324 168.3,325.2 167.9,325.3 167.5,325.5 165.5,324.4 165.9,324.2 						"/>
					</g>
					<g>
						<polygon class="st32" points="151.2,322.6 153.2,323.7 152.8,323.9 152.5,324 150.5,322.9 150.9,322.7 						"/>
					</g>
					<g>
						<polygon class="st32" points="162.3,321.8 164.3,322.9 163.9,323.1 163.6,323.2 161.6,322.1 162,321.9 						"/>
					</g>
					<g>
						<polygon class="st32" points="147.3,320.3 149.3,321.4 148.9,321.6 148.5,321.7 146.5,320.6 146.9,320.4 						"/>
					</g>
					<g>
						<polygon class="st32" points="158.4,319.5 160.4,320.6 160,320.8 159.6,320.9 157.6,319.8 158,319.6 						"/>
					</g>
					<g>
						<polygon class="st32" points="143.3,318 145.3,319.1 144.9,319.3 144.5,319.5 142.6,318.3 142.9,318.2 						"/>
					</g>
					<g>
						<polygon class="st32" points="154.4,317.2 156.4,318.3 156,318.5 155.6,318.7 153.7,317.5 154,317.4 						"/>
					</g>
					<g>
						<polygon class="st32" points="139.4,315.7 141.3,316.8 141,317 140.6,317.2 138.6,316 139,315.9 						"/>
					</g>
					<g>
						<polygon class="st32" points="150.5,314.9 152.4,316 152.1,316.2 151.7,316.4 149.7,315.2 150.1,315.1 						"/>
					</g>
					<g>
						<polygon class="st32" points="135.4,313.4 137.4,314.6 137,314.7 136.6,314.9 134.6,313.8 135,313.6 						"/>
					</g>
					<g>
						<polygon class="st32" points="146.5,312.6 148.5,313.8 148.1,313.9 147.7,314.1 145.7,312.9 146.1,312.8 						"/>
					</g>
					<g>
						<polygon class="st32" points="131.4,311.1 133.4,312.3 133,312.4 132.7,312.6 130.7,311.5 131.1,311.3 						"/>
					</g>
					<g>
						<polygon class="st32" points="142.5,310.3 144.5,311.5 144.1,311.6 143.8,311.8 141.8,310.7 142.2,310.5 						"/>
					</g>
					<g>
						<polygon class="st32" points="128.9,308.9 129.2,309.1 129.6,309.3 128.8,309.6 129.5,310 129.1,310.2 128.7,310.3 
							127.4,309.6 						"/>
					</g>
					<g>
						<polygon class="st32" points="138.6,308 140.6,309.2 140.2,309.4 139.8,309.5 137.8,308.4 138.2,308.2 						"/>
					</g>
					<g>
						<polygon class="st32" points="132.1,307.5 132.5,307.7 132.8,307.9 131.2,308.6 130.9,308.4 130.5,308.2 						"/>
					</g>
					<g>
						<polygon class="st32" points="135.2,306.9 135.8,307.2 136.2,307.1 138.2,308.2 137.8,308.4 139.8,309.5 140.2,309.4 
							142.2,310.5 141.8,310.7 143.8,311.8 144.1,311.6 146.1,312.8 145.7,312.9 147.7,314.1 148.1,313.9 150.1,315.1 149.7,315.2 
							151.7,316.4 152.1,316.2 154,317.4 153.7,317.5 155.6,318.7 156,318.5 158,319.6 157.6,319.8 159.6,320.9 160,320.8 
							162,321.9 161.6,322.1 163.6,323.2 163.9,323.1 165.9,324.2 165.5,324.4 167.5,325.5 167.9,325.3 169.9,326.5 169.5,326.6 
							171.5,327.8 171.9,327.6 173.8,328.8 173.5,328.9 175.4,330.1 175.8,329.9 177.8,331.1 177.4,331.2 179.4,332.4 179.8,332.2 
							181.8,333.3 181.4,333.5 183.4,334.6 183.7,334.5 185.7,335.6 185.3,335.8 187.3,336.9 187.7,336.8 189.7,337.9 189.3,338.1 
							190,338.4 189.2,338.8 189.5,339 187.9,339.7 187.6,339.5 186,340.2 186.3,340.4 184.7,341.1 184.3,340.9 183.6,341.2 
							182.9,340.8 182.6,341 180.6,339.9 181,339.7 179,338.6 178.6,338.7 176.6,337.6 177,337.4 175,336.3 174.6,336.4 
							172.6,335.3 173,335.1 171.1,334 170.7,334.1 168.7,333 169.1,332.8 167.1,331.7 166.7,331.9 164.7,330.7 165.1,330.6 
							163.1,329.4 162.7,329.6 160.8,328.4 161.1,328.3 159.2,327.1 158.8,327.3 156.8,326.2 157.2,326 155.2,324.8 154.8,325 
							152.8,323.9 153.2,323.7 151.2,322.6 150.9,322.7 148.9,321.6 149.3,321.4 147.3,320.3 146.9,320.4 144.9,319.3 145.3,319.1 
							143.3,318 142.9,318.2 141,317 141.3,316.8 139.4,315.7 139,315.9 137,314.7 137.4,314.6 135.4,313.4 135,313.6 133,312.4 
							133.4,312.3 131.4,311.1 131.1,311.3 129.1,310.2 129.5,310 128.8,309.6 129.6,309.3 129.2,309.1 130.9,308.4 131.2,308.6 
							132.8,307.9 132.5,307.7 134.1,307 134.4,307.2 						"/>
					</g>
					<g>
						<polygon class="st32" points="135.3,306.1 136.6,306.9 136.2,307.1 135.8,307.2 135.2,306.9 134.4,307.2 134.1,307 
							133.8,306.8 						"/>
					</g>
				</g>
				<g>
					<polygon class="st32" points="182.9,340.8 183.6,341.2 184.3,340.9 184.7,341.1 185,341.3 183.5,341.9 182.2,341.2 182.6,341 
											"/>
				</g>
			</g>
		</g>
		<g class="st43">
			<polygon class="st3" points="327.9,211.6 209.3,280.1 65.8,197.2 0.5,235.1 1.5,236.3 209.1,356.3 393,250 393,248.8 			"/>
			<g>
				<polyline class="st34" points="329.2,212.3 327.9,211.6 326.6,212.3 				"/>
				<line class="st44" x1="324.1" y1="213.8" x2="211.9" y2="278.6"/>
				<polyline class="st34" points="210.6,279.4 209.3,280.1 208,279.4 				"/>
				<line class="st45" x1="205.4" y1="277.9" x2="68.4" y2="198.7"/>
				<polyline class="st34" points="67.1,198 65.8,197.2 64.5,198 				"/>
				<line class="st46" x1="62" y1="199.4" x2="3" y2="233.6"/>
				<polyline class="st34" points="1.8,234.3 0.5,235.1 1.4,236.2 				"/>
				<line class="st47" x1="4" y1="237.8" x2="206.5" y2="354.8"/>
				<polyline class="st34" points="207.8,355.5 209.1,356.3 210.4,355.5 				"/>
				<line class="st48" x1="213" y1="354" x2="390.4" y2="251.5"/>
				<polyline class="st34" points="391.7,250.7 393,250 393,248.8 391.7,248.1 				"/>
				<line class="st49" x1="389.2" y1="246.6" x2="330.5" y2="213"/>
			</g>
		</g>
		<path class="st28" d="M285.3,277.3c-6.8,3.5-13.6,7-20.3,10.5"/>
		<path class="st28" d="M264.5,353.5c6.8-3.8,13.6-7.7,20.3-11.5"/>
		<path class="st50" d="M259.5,327.6c8.5,4.9,17.1,9.8,25.6,14.7"/>
		<path class="st27" d="M0,236.1c1.9-1,3.9-1.9,5.8-2.9c0,22,0,44.1,0,66.1l203.3,117.4l0,6.3L0,302.2C0,280.1,0,258.1,0,236.1z"/>
		<path class="st29" d="M208.6,415.7L388,312.2c0.1-22.2,0.2-44.5,0.3-66.7c1.6,1,3.3,1.9,4.9,2.9c0.1,22.3,0.2,44.6,0.2,67
			L208.6,422L208.6,415.7z"/>
		<g>
			<g>
				<path class="st39" d="M304.5,355c0.1-0.5,0.2-1,0.2-1.5h-1c0,0.5-0.1,1-0.2,1.5"/>
				<path class="st40" d="M302,357.4c-3,3.3-9.6,5.5-17.2,5.5c-8.5,0-15.7-2.8-18-6.7"/>
				<path class="st39" d="M266.2,354.9c-0.2-0.5-0.2-1-0.2-1.5h-1c0,0.5,0.1,1,0.2,1.5"/>
				<path class="st41" d="M266.7,357.5c3.1,3.5,10.1,5.9,18.1,5.9c9,0,16.6-3,19-7.1"/>
			</g>
		</g>
		<g>
			<g>
				<g>
					<path class="st32" d="M35.6,314.5l55.8,32.2l-7.9,3.4l-0.3-0.2l-55.8-32.2l7.9-3.4L35.6,314.5z M28.8,317.7l54.8,31.6l6.4-2.8
						L35.2,315L28.8,317.7"/>
				</g>
				<g>
					<polygon class="st32" points="35.2,315 90,346.6 83.6,349.3 28.8,317.7 					"/>
				</g>
			</g>
		</g>
		<g>
			<g>
				<g>
					<polygon class="st32" points="135.2,373 190,404.6 183.6,407.3 128.8,375.7 					"/>
				</g>
				<g>
					<path class="st32" d="M135.6,372.5l55.8,32.2l-7.9,3.4l-0.3-0.2l-55.8-32.2l7.9-3.4L135.6,372.5z M128.8,375.7l54.8,31.6
						l6.4-2.8L135.2,373L128.8,375.7"/>
				</g>
			</g>
		</g>
		<polygon class="st26" points="327.9,277.7 209.3,346.2 65.8,263.4 0.5,301.2 1.5,302.4 209.1,422.4 393,316.1 393,314.9 		"/>
		<path class="st51" d="M175.7,337.2c-17.6,9.9-35.1,19.9-52.7,29.8"/>
		<path class="st51" d="M84.3,283.4c-17.6,9.9-35.1,19.9-52.7,29.8"/>
		<path class="st51" d="M180.4,272.5c-17.6,9.9-35.1,19.9-52.7,29.8"/>
	</g>
</g>
<g id="Layer_153">
</g>
</svg>
