<?xml version="1.0" encoding="UTF-8"?>
<svg width="11px" height="12px" viewBox="0 0 11 12" version="1.1" xmlns="http://www.w3.org/2000/svg" xmlns:xlink="http://www.w3.org/1999/xlink">
    <title>building</title>
    <g id="Smart-Infrastructure-v4" stroke="none" stroke-width="1" fill="none" fill-rule="evenodd">
        <g id="30-Smart-Infrastructure-/-06-Device-Manager-/-06_01_Robot-Page" transform="translate(-110.000000, -132.000000)">
            <g id="Group-18" transform="translate(108.000000, 128.000000)">
                <g id="building" transform="translate(0.000000, 2.000000)">
                    <rect id="Rectangle" fill="#e96058" opacity="0" x="0" y="0" width="16" height="16"></rect>
                    <path d="M12.7857149,2 L12.7857149,13.3333333 L10.7100129,13.3333333 L10.7100129,10.6231896 L7.85592257,10.6231896 L7.85592257,13.3333333 L5.78021987,13.3333333 L5.78021987,2 L12.7857149,2 Z M12.0073267,2.73913011 L10.7100129,2.73913011 L10.7100129,3.97101856 L12.0073267,3.97101856 L12.0073267,2.73913011 Z M9.93162462,2.73913011 L8.63431084,2.73913011 L8.63431084,3.97101856 L9.93162462,3.97101856 L9.93162462,2.73913011 Z M7.85592257,2.73913011 L6.55860879,2.73913011 L6.55860879,3.97101856 L7.85592257,3.97101856 L7.85592257,2.73913011 Z M5.52075711,4.21739527 L5.52075711,13.3333333 L2.66666667,13.3333333 L2.66666667,4.21739527 L5.52075711,4.21739527 Z M12.0073267,4.71014868 L10.7100129,4.71014868 L10.7100129,5.9420322 L12.0073267,5.9420322 L12.0073267,4.71014868 Z M9.93162462,4.71014868 L8.63431084,4.71014868 L8.63431084,5.9420322 L9.93162462,5.9420322 L9.93162462,4.71014868 Z M7.85592257,4.71014868 L6.55860879,4.71014868 L6.55860879,5.9420322 L7.85592257,5.9420322 L7.85592257,4.71014868 Z M4.74236885,4.95652538 L3.44505506,4.95652538 L3.44505506,6.1884089 L4.74236885,6.1884089 L4.74236885,4.95652538 Z M12.0073267,6.68116231 L10.7100129,6.68116231 L10.7100129,7.91304583 L12.0073267,7.91304583 L12.0073267,6.68116231 Z M9.93162462,6.68116231 L8.63431084,6.68116231 L8.63431084,7.91304583 L9.93162462,7.91304583 L9.93162462,6.68116231 Z M7.85592257,6.68116231 L6.55860879,6.68116231 L6.55860879,7.91304583 L7.85592257,7.91304583 L7.85592257,6.68116231 Z M4.74236885,6.92753902 L3.44505506,6.92753902 L3.44505506,8.15942254 L4.74236885,8.15942254 L4.74236885,6.92753902 Z M12.0073267,8.65217595 L10.7100129,8.65217595 L10.7100129,9.88405947 L12.0073267,9.88405947 L12.0073267,8.65217595 Z M9.93162462,8.65217595 L8.63431084,8.65217595 L8.63431084,9.88405947 L9.93162462,9.88405947 L9.93162462,8.65217595 Z M7.85592257,8.65217595 L6.55860879,8.65217595 L6.55860879,9.88405947 L7.85592257,9.88405947 L7.85592257,8.65217595 Z M4.74236885,8.89855265 L3.44505506,8.89855265 L3.44505506,10.1304362 L4.74236885,10.1304362 L4.74236885,8.89855265 Z M4.74236885,10.8695663 L3.44505506,10.8695663 L3.44505506,12.1014498 L4.74236885,12.1014498 L4.74236885,10.8695663 Z" id="Shape" fill="#e96058"></path>
                </g>
            </g>
        </g>
    </g>
</svg>
