<?xml version="1.0" encoding="UTF-8"?>
<svg width="10px" height="13px" viewBox="0 0 10 13" version="1.1" xmlns="http://www.w3.org/2000/svg" xmlns:xlink="http://www.w3.org/1999/xlink">
    <title>icon / 24-cont / nav / plug-24</title>
    <defs>
        <filter id="filter-1">
            <feColorMatrix in="SourceGraphic" type="matrix" values="0 0 0 0 0.180392 0 0 0 0 0.482353 0 0 0 0 0.235294 0 0 0 1.000000 0"></feColorMatrix>
        </filter>
    </defs>
    <g id="Smart-Infrastructure-v4" stroke="none" stroke-width="1" fill="none" fill-rule="evenodd">
        <g id="30-Smart-Infrastructure-/-03-Sctructure-/-03_03_Areas-Panel-with-scroll" transform="translate(-699.000000, -237.000000)">
            <g id="Group-16" transform="translate(680.000000, 225.000000)">
                <g id="Group-11" transform="translate(16.000000, 8.000000)">
                    <g id="icon-/-24-cont-/-nav-/-plug-24" transform="translate(0.000000, 2.000000)">
                        <g filter="url(#filter-1)" id="Group">
                            <g transform="translate(3.333333, 2.000000)">
                                <polygon id="Path" fill="#000000" fill-rule="nonzero" points="6.28092754 10.3877971 3.0517971 10.3877971 3.0517971 11.7602029 4.01313043 11.7602029 4.01313043 12.5289855 5.32 12.5289855 5.32 11.7602029 6.28092754 11.7602029"></polygon>
                                <path d="M9.24953623,3.88266667 L7.41127536,3.88266667 L7.41127536,0.656173913 C7.41127536,0.321797101 7.1402029,0.0507246377 6.80582609,0.0507246377 C6.47144928,0.0507246377 6.20037681,0.321797101 6.20037681,0.656173913 L6.20037681,3.88266667 L3.13255072,3.88266667 L3.13255072,0.656173913 C3.13255072,0.321797101 2.86147826,0.0507246377 2.52710145,0.0507246377 C2.19252174,0.0507246377 1.92165217,0.321797101 1.92165217,0.656173913 L1.92165217,3.88266667 L0.0837971014,3.88266667 L0.0837971014,5.25608696 L0.753362319,5.25608696 L0.753362319,7.73246377 C0.753362319,8.97663768 1.76197101,9.98524638 3.00594203,9.98524638 L6.32678261,9.98524638 C7.57095652,9.98524638 8.57936232,8.97663768 8.57936232,7.73246377 L8.57936232,5.25628986 L9.24933333,5.25628986 L9.24933333,3.88266667 L9.24953623,3.88266667 Z" id="Shape" fill="#000000" fill-rule="nonzero"></path>
                            </g>
                        </g>
                    </g>
                </g>
            </g>
        </g>
    </g>
</svg>