<?xml version="1.0" encoding="UTF-8"?>
<svg width="98px" height="97px" viewBox="0 0 98 97" version="1.1" xmlns="http://www.w3.org/2000/svg" xmlns:xlink="http://www.w3.org/1999/xlink">
    <title>Group 9</title>
    <g id="Smart-Infrastructure" stroke="none" stroke-width="1" fill="none" fill-rule="evenodd">
        <g id="30-Smart-Infrastructure-/-02-Dashboard-/-02_02_Dashboard" transform="translate(-840.000000, -411.000000)">
            <g id="Group-7" transform="translate(719.000000, 381.000000)">
                <g id="Group-9" transform="translate(122.000000, 31.000000)">
                    <g id="Group-2-Copy" stroke="#DCBC65" opacity="0.1" stroke-width="1.90023753">
                        <ellipse id="Oval-Copy-4" cx="47.5818021" cy="47.5210917" rx="47.5818021" ry="47.5210917"></ellipse>
                    </g>
                    <g id="Group-2" transform="translate(18.580645, 41.431579)" fill-rule="nonzero">
                        <path d="M34.383557,21.7539192 C34.4461764,21.2438555 34.4879227,20.7133892 34.4879227,20.1625203 C34.4879227,19.6116515 34.4461764,19.0811851 34.3626838,18.5711214 L37.8902453,15.8779847 C38.2033425,15.6331541 38.2868351,15.184298 38.0989768,14.8374547 L34.7592736,9.18594824 C34.5505421,8.81870234 34.1122061,8.69628704 33.7364895,8.81870234 L29.5827337,10.4509064 C28.7060616,9.79802475 27.7876432,9.26755844 26.7648591,8.85950744 L26.1386648,4.53416677 C26.0760454,4.12611576 25.7212019,3.84048006 25.303739,3.84048006 L18.6243327,3.84048006 C18.2068698,3.84048006 17.8728994,4.12611576 17.81028,4.53416677 L17.1840857,8.85950744 C16.1613016,9.26755844 15.2220101,9.8184273 14.3662111,10.4509064 L10.2124553,8.81870234 C9.83673869,8.67588449 9.39840265,8.81870234 9.1896712,9.18594824 L5.84996803,14.8374547 C5.64123658,15.2047006 5.72472916,15.6331541 6.05869948,15.8779847 L9.58626095,18.5711214 C9.50276837,19.0811851 9.44014894,19.632054 9.44014894,20.1625203 C9.44014894,20.6929866 9.48189523,21.2438555 9.56538781,21.7539192 L6.03782633,24.4470559 C5.72472916,24.6918865 5.64123658,25.1407426 5.82909489,25.4875859 L9.16879806,31.1390924 C9.3775295,31.5063383 9.81586555,31.6287536 10.1915822,31.5063383 L14.345338,29.8741343 C15.2220101,30.5270159 16.1404284,31.0574822 17.1632125,31.4655332 L17.7894069,35.7908739 C17.8728994,36.1989249 18.2068698,36.4845606 18.6243327,36.4845606 L25.303739,36.4845606 C25.7212019,36.4845606 26.0760454,36.1989249 26.1177916,35.7908739 L26.743986,31.4655332 C27.7667701,31.0574822 28.7060616,30.5066133 29.5618605,29.8741343 L33.7156164,31.5063383 C34.091333,31.6491561 34.529669,31.5063383 34.7384005,31.1390924 L38.0781036,25.4875859 C38.2868351,25.12034 38.2033425,24.6918865 37.8693722,24.4470559 L34.383557,21.7539192 L34.383557,21.7539192 Z M21.9640358,26.8833604 C18.2874472,26.8833604 15.2793293,23.8589824 15.2793293,20.1625203 C15.2793293,16.4660583 18.2874472,13.4416802 21.9640358,13.4416802 C25.6406244,13.4416802 28.6487424,16.4660583 28.6487424,20.1625203 C28.6487424,23.8589824 25.6406244,26.8833604 21.9640358,26.8833604 Z" id="Mask" fill="#151515" opacity="0.1"></path>
                        <path d="M28.6538085,17.9134392 C28.7164279,17.4033754 28.7581742,16.8729091 28.7581742,16.3220403 C28.7581742,15.7711714 28.7164279,15.2407051 28.6329354,14.7306413 L32.1604968,12.0375047 C32.473594,11.7926741 32.5570866,11.343818 32.3692283,10.9969746 L29.0295251,5.34546818 C28.8207937,4.97822228 28.3824576,4.85580698 28.006741,4.97822228 L23.8529852,6.6104263 C22.9763131,5.95754469 22.0578948,5.42707838 21.0351107,5.01902738 L20.4089163,0.693686711 C20.3462969,0.285635704 19.9914534,0 19.5739905,0 L12.8945842,0 C12.4771213,0 12.143151,0.285635704 12.0805315,0.693686711 L11.4543372,5.01902738 C10.4315531,5.42707838 9.49226158,5.97794724 8.63646264,6.6104263 L4.48270682,4.97822228 C4.10699021,4.83540443 3.66865417,4.97822228 3.45992272,5.34546818 L0.120219554,10.9969746 C-0.0885118938,11.3642205 -0.00501931458,11.7926741 0.328951002,12.0375047 L3.85651248,14.7306413 C3.7730199,15.2407051 3.71040046,15.7915739 3.71040046,16.3220403 C3.71040046,16.8525066 3.75214675,17.4033754 3.83563933,17.9134392 L0.308077858,20.6065758 C-0.00501931458,20.8514064 -0.0885118938,21.3002625 0.0993464095,21.6471059 L3.43904958,27.2986123 C3.64778103,27.6658582 4.08611707,27.7882735 4.46183368,27.6658582 L8.61558949,26.0336542 C9.49226158,26.6865358 10.4106799,27.2170021 11.433464,27.6250531 L12.0596584,31.9503938 C12.143151,32.3584448 12.4771213,32.6440805 12.8945842,32.6440805 L19.5739905,32.6440805 C19.9914534,32.6440805 20.3462969,32.3584448 20.3880432,31.9503938 L21.0142375,27.6250531 C22.0370216,27.2170021 22.9763131,26.6661333 23.8321121,26.0336542 L27.9858679,27.6658582 C28.3615845,27.8086761 28.7999205,27.6658582 29.008652,27.2986123 L32.3483551,21.6471059 C32.5570866,21.27986 32.473594,20.8514064 32.1396237,20.6065758 L28.6538085,17.9134392 L28.6538085,17.9134392 Z M16.2342874,23.0428804 C12.5576987,23.0428804 9.54958079,20.0185023 9.54958079,16.3220403 C9.54958079,12.6255782 12.5576987,9.60120015 16.2342874,9.60120015 C19.910876,9.60120015 22.9189939,12.6255782 22.9189939,16.3220403 C22.9189939,20.0185023 19.910876,23.0428804 16.2342874,23.0428804 Z" id="Mask" fill="#DCBC65" opacity="0.1"></path>
                    </g>
                    <g id="Group" transform="translate(48.516129, 31.326316)" fill-rule="nonzero">
                        <path d="M33.4375678,21.6651081 C33.4891725,21.2450556 33.5235756,20.808201 33.5235756,20.3545443 C33.5235756,19.9008876 33.4891725,19.464033 33.4203663,19.0439805 L36.3274301,16.8261033 C36.5854535,16.6244781 36.6542597,16.2548319 36.4994457,15.9691961 L33.7471959,11.3150144 C33.5751803,11.0125766 33.2139475,10.911764 32.9043194,11.0125766 L29.4812088,12.3567446 C28.7587432,11.8190774 28.0018745,11.3822228 27.158998,11.0461808 L26.6429512,7.48413552 C26.5913465,7.14809351 26.29892,6.91286411 25.9548887,6.91286411 L20.4503892,6.91286411 C20.106358,6.91286411 19.831133,7.14809351 19.7795283,7.48413552 L19.2634815,11.0461808 C18.420605,11.3822228 17.6465347,11.8358795 16.9412707,12.3567446 L13.5181601,11.0125766 C13.208532,10.8949619 12.8472992,11.0125766 12.6752836,11.3150144 L9.92303378,15.9691961 C9.75101817,16.271634 9.81982441,16.6244781 10.0950494,16.8261033 L13.0021132,19.0439805 C12.933307,19.464033 12.8817023,19.9176897 12.8817023,20.3545443 C12.8817023,20.7913989 12.9161054,21.2450556 12.9849117,21.6651081 L10.0778478,23.8829854 C9.81982441,24.0846106 9.75101817,24.4542568 9.90583222,24.7398925 L12.658082,29.3940743 C12.8300976,29.6965121 13.1913304,29.7973247 13.5009585,29.6965121 L16.9240692,28.352344 C17.6465347,28.8900113 18.4034034,29.3268659 19.2462799,29.6629079 L19.7623267,33.2249531 C19.831133,33.5609951 20.106358,33.7962245 20.4503892,33.7962245 L25.9548887,33.7962245 C26.29892,33.7962245 26.5913465,33.5609951 26.6257496,33.2249531 L27.1417965,29.6629079 C27.9846729,29.3268659 28.7587432,28.8732092 29.4640072,28.352344 L32.8871179,29.6965121 C33.196746,29.8141268 33.5579787,29.6965121 33.7299944,29.3940743 L36.4822441,24.7398925 C36.6542597,24.4374547 36.5854535,24.0846106 36.3102285,23.8829854 L33.4375678,21.6651081 L33.4375678,21.6651081 Z M23.202639,26.1152644 C20.0490934,26.1152644 17.4689198,23.5229404 17.4689198,20.3545443 C17.4689198,17.1861483 20.0490934,14.5938242 23.202639,14.5938242 C26.3561845,14.5938242 28.9363582,17.1861483 28.9363582,20.3545443 C28.9363582,23.5229404 26.3561845,26.1152644 23.202639,26.1152644 Z" id="Mask-Copy" fill="#151515" opacity="0.1" transform="translate(23.202639, 20.354544) rotate(-15.000000) translate(-23.202639, -20.354544) "></path>
                        <path d="M27.7038486,17.8246281 C27.7554533,17.4045756 27.7898564,16.967721 27.7898564,16.5140643 C27.7898564,16.0604076 27.7554533,15.6235529 27.6866471,15.2035004 L30.5937109,12.9856232 C30.8517343,12.783998 30.9205405,12.4143518 30.7657265,12.1287161 L28.0134767,7.47453432 C27.8414611,7.17209651 27.4802283,7.07128391 27.1706002,7.17209651 L23.7474896,8.51626453 C23.025024,7.97859732 22.2681553,7.54174272 21.4252788,7.20570071 L20.909232,3.64365546 C20.8576273,3.30761345 20.5652008,3.07238405 20.2211695,3.07238405 L14.71667,3.07238405 C14.3726388,3.07238405 14.0974138,3.30761345 14.0458091,3.64365546 L13.5297623,7.20570071 C12.6868858,7.54174272 11.9128155,7.99539942 11.2075515,8.51626453 L7.78444086,7.17209651 C7.47481276,7.05448181 7.11357997,7.17209651 6.94156436,7.47453432 L4.18931458,12.1287161 C4.01729897,12.4311539 4.08610522,12.783998 4.3613302,12.9856232 L7.26839402,15.2035004 C7.19958778,15.6235529 7.1479831,16.0772097 7.1479831,16.5140643 C7.1479831,16.9509189 7.18238622,17.4045756 7.25119246,17.8246281 L4.34412863,20.0425053 C4.08610522,20.2441305 4.01729897,20.6137767 4.17211302,20.8994124 L6.9243628,25.5535942 C7.09637841,25.856032 7.4576112,25.9568446 7.7672393,25.856032 L11.19035,24.511864 C11.9128155,25.0495312 12.6696842,25.4863858 13.5125607,25.8224278 L14.0286075,29.3844731 C14.0974138,29.7205151 14.3726388,29.9557445 14.71667,29.9557445 L20.2211695,29.9557445 C20.5652008,29.9557445 20.8576273,29.7205151 20.8920304,29.3844731 L21.4080773,25.8224278 C22.2509537,25.4863858 23.025024,25.0327291 23.730288,24.511864 L27.1533987,25.856032 C27.4630268,25.9736467 27.8242595,25.856032 27.9962752,25.5535942 L30.7485249,20.8994124 C30.9205405,20.5969746 30.8517343,20.2441305 30.5765093,20.0425053 L27.7038486,17.8246281 L27.7038486,17.8246281 Z M17.4689198,22.2747843 C14.3153742,22.2747843 11.7352006,19.6824603 11.7352006,16.5140643 C11.7352006,13.3456682 14.3153742,10.7533442 17.4689198,10.7533442 C20.6224653,10.7533442 23.202639,13.3456682 23.202639,16.5140643 C23.202639,19.6824603 20.6224653,22.2747843 17.4689198,22.2747843 Z" id="Mask-Copy" fill="#DCBC65" opacity="0.1" transform="translate(17.468920, 16.514064) rotate(-15.000000) translate(-17.468920, -16.514064) "></path>
                    </g>
                    <g id="Group-Copy" transform="translate(33.032258, 17.178947)" fill-rule="nonzero">
                        <path d="M23.5457959,15.1204401 C23.5816482,14.8272784 23.6055497,14.5223903 23.6055497,14.2057757 C23.6055497,13.8891611 23.5816482,13.584273 23.5338451,13.2911114 L25.5535231,11.7432179 C25.7327845,11.6025003 25.7805875,11.3445181 25.6730307,11.1451681 L23.7609095,7.89693712 C23.6414019,7.68586073 23.390436,7.61550194 23.1753224,7.68586073 L20.7971217,8.623978 C20.2951899,8.24873109 19.7693565,7.94384298 19.1837694,7.70931366 L18.8252467,5.22330291 C18.7893944,4.9887736 18.5862315,4.82460308 18.3472164,4.82460308 L14.522974,4.82460308 C14.2839589,4.82460308 14.0927468,4.9887736 14.0568945,5.22330291 L13.6983718,7.70931366 C13.1127846,7.94384298 12.5750006,8.26045756 12.0850195,8.623978 L9.70681877,7.68586073 C9.49170514,7.60377547 9.24073923,7.68586073 9.12123166,7.89693712 L7.20911047,11.1451681 C7.08960289,11.3562445 7.13740592,11.6025003 7.32861804,11.7432179 L9.34829605,13.2911114 C9.30049302,13.584273 9.26464075,13.9008876 9.26464075,14.2057757 C9.26464075,14.5106638 9.28854226,14.8272784 9.33634529,15.1204401 L7.31666728,16.6683335 C7.13740592,16.8090511 7.08960289,17.0670334 7.19715971,17.2663833 L9.1092809,20.5146143 C9.22878847,20.7256907 9.47975438,20.7960495 9.69486801,20.7256907 L12.0730687,19.7875734 C12.5750006,20.1628204 13.1008339,20.4677085 13.686421,20.7022378 L14.0449437,23.1882485 C14.0927468,23.4227778 14.2839589,23.5869484 14.522974,23.5869484 L18.3472164,23.5869484 C18.5862315,23.5869484 18.7893944,23.4227778 18.8132959,23.1882485 L19.1718187,20.7022378 C19.7574058,20.4677085 20.2951899,20.1510939 20.7851709,19.7875734 L23.1633716,20.7256907 C23.3784853,20.807776 23.6294512,20.7256907 23.7489588,20.5146143 L25.66108,17.2663833 C25.7805875,17.0553069 25.7327845,16.8090511 25.5415724,16.6683335 L23.5457959,15.1204401 L23.5457959,15.1204401 Z M16.4350952,18.2262783 C14.2441744,18.2262783 12.4516028,16.4170521 12.4516028,14.2057757 C12.4516028,11.9944993 14.2441744,10.1852732 16.4350952,10.1852732 C18.626016,10.1852732 20.4185876,11.9944993 20.4185876,14.2057757 C20.4185876,16.4170521 18.626016,18.2262783 16.4350952,18.2262783 Z" id="Mask-Copy" fill="#151515" opacity="0.1" transform="translate(16.435095, 14.205776) rotate(-15.000000) translate(-16.435095, -14.205776) "></path>
                        <path d="M19.5623035,12.440105 C19.5981558,12.1469434 19.6220573,11.8420553 19.6220573,11.5254407 C19.6220573,11.2088261 19.5981558,10.903938 19.5503528,10.6107763 L21.5700308,9.06288286 C21.7492921,8.92216527 21.7970952,8.66418302 21.6895383,8.4648331 L19.7774172,5.21660208 C19.6579096,5.00552569 19.4069437,4.9351669 19.19183,5.00552569 L16.8136293,5.94364296 C16.3116975,5.56839605 15.7858642,5.26350794 15.2002771,5.02897862 L14.8417543,2.54296787 C14.8059021,2.30843855 14.6027392,2.14426803 14.363724,2.14426803 L10.5394817,2.14426803 C10.3004665,2.14426803 10.1092544,2.30843855 10.0734021,2.54296787 L9.71487939,5.02897862 C9.12929228,5.26350794 8.59150819,5.58012252 8.10152714,5.94364296 L5.72332641,5.00552569 C5.50821277,4.92344043 5.25724687,5.00552569 5.13773929,5.21660208 L3.2256181,8.4648331 C3.10611053,8.67590949 3.15391356,8.92216527 3.34512568,9.06288286 L5.36480368,10.6107763 C5.31700065,10.903938 5.28114838,11.2205526 5.28114838,11.5254407 C5.28114838,11.8303288 5.3050499,12.1469434 5.35285293,12.440105 L3.33317492,13.9879985 C3.15391356,14.1287161 3.10611053,14.3866983 3.21366734,14.5860483 L5.12578853,17.8342793 C5.24529611,18.0453557 5.49626201,18.1157145 5.71137565,18.0453557 L8.08957638,17.1072384 C8.59150819,17.4824853 9.11734152,17.7873734 9.70292863,18.0219027 L10.0614514,20.5079135 C10.1092544,20.7424428 10.3004665,20.9066133 10.5394817,20.9066133 L14.363724,20.9066133 C14.6027392,20.9066133 14.8059021,20.7424428 14.8298036,20.5079135 L15.1883263,18.0219027 C15.7739134,17.7873734 16.3116975,17.4707588 16.8016786,17.1072384 L19.1798793,18.0453557 C19.3949929,18.1274409 19.6459588,18.0453557 19.7654664,17.8342793 L21.6775876,14.5860483 C21.7970952,14.3749719 21.7492921,14.1287161 21.55808,13.9879985 L19.5623035,12.440105 L19.5623035,12.440105 Z M12.4516028,15.5459432 C10.260682,15.5459432 8.46811048,13.7367171 8.46811048,11.5254407 C8.46811048,9.31416427 10.260682,7.50493812 12.4516028,7.50493812 C14.6425236,7.50493812 16.4350952,9.31416427 16.4350952,11.5254407 C16.4350952,13.7367171 14.6425236,15.5459432 12.4516028,15.5459432 Z" id="Mask-Copy" fill="#DCBC65" opacity="0.1" transform="translate(12.451603, 11.525441) rotate(-15.000000) translate(-12.451603, -11.525441) "></path>
                    </g>
                </g>
            </g>
        </g>
    </g>
</svg>
