<?xml version="1.0" encoding="UTF-8"?>
<svg width="165px" height="163px" viewBox="0 0 165 163" version="1.1" xmlns="http://www.w3.org/2000/svg" xmlns:xlink="http://www.w3.org/1999/xlink">
    <title>Group 2</title>
    <defs>
        <rect id="path-1" x="0" y="0" width="165" height="163"></rect>
    </defs>
    <g id="Smart-Infrastructure" stroke="none" stroke-width="1" fill="none" fill-rule="evenodd">
        <g id="30-Smart-Infrastructure-/-08-Automation-/-08_01_Automation" transform="translate(-638.000000, -450.000000)">
            <g id="Group-2" transform="translate(638.000000, 450.000000)">
                <mask id="mask-2" fill="white">
                    <use xlink:href="#path-1"></use>
                </mask>
                <g id="Mask"></g>
                <g mask="url(#mask-2)" id="Group-3">
                    <g transform="translate(-17.000000, 0.000000)">
                        <g id="Group" transform="translate(0.800000, 0.000000)" fill-rule="nonzero">
                            <path d="M141.068579,5 C141.134188,5.04637777 141.193655,5.11381356 141.26639,5.13637572 C144.111434,6.02156447 145.547471,7.99399864 145.549437,11.0215898 C145.549928,11.6716307 145.59416,12.3241785 145.551403,12.9709605 C145.516018,13.506185 145.755112,13.676404 146.21315,13.840105 C147.85609,14.4269718 149.485515,15.054952 151.104374,15.7077505 C151.865641,16.0148465 152.656641,16.7867231 153.315193,16.666893 C153.988734,16.5443052 154.529583,15.6012069 155.105816,14.9947862 C157.364306,12.6184894 160.814579,12.4986592 163.153422,14.7701674 C164.496574,16.0747616 165.800163,17.4234774 167.08262,18.7904936 C168.625303,20.4347737 169.11504,23.0163862 168.034572,24.995589 C167.364225,26.2234719 166.317176,27.2455377 165.38734,28.3129786 C165.082391,28.6631935 165.021204,28.8805423 165.212872,29.3250168 C166.113467,31.4135208 167.024137,33.5027768 167.790072,35.6441765 C168.07954,36.4531552 168.395301,36.6955731 169.223406,36.6928155 C170.454506,36.6885538 171.741631,36.7033445 172.905401,37.0540608 C174.858451,37.6424318 175.886579,39.2651525 176.516135,41.1631315 L176.516135,48.803431 L176.516135,48.803431 C176.025415,50.5943651 175.131455,52.1143026 173.398087,52.8495783 C172.529437,53.2180936 171.536694,53.326392 170.587199,53.4376986 C169.795708,53.5307049 168.985295,53.4567511 168.32232,53.4567511 C167.420742,55.6590686 166.58846,57.7713882 165.692043,59.855129 C165.023907,61.4081577 164.970093,61.4099125 166.180059,62.5874066 C167.616096,63.9850071 168.648402,65.5325206 168.551585,67.6909672 C168.485975,69.1577583 167.98346,70.3961702 167.009884,71.4292664 C165.761338,72.7541666 164.482813,74.0509894 163.186104,75.3270049 C160.889035,77.587232 157.453014,77.5318294 155.195998,75.2314918 C154.571111,74.5947375 153.997089,73.5806938 153.280054,73.4561005 C152.569898,73.3327607 151.723118,74.1492602 150.91074,74.4899488 C149.171228,75.219208 147.415253,75.9071031 145.563444,76.6534093 C145.563444,77.4528618 145.556809,78.3801666 145.564672,79.3074714 C145.591457,82.4779562 143.273254,85.0432738 140.181991,85.1603464 C138.299465,85.2315425 136.410305,85.2307904 134.527779,85.1626026 C131.350756,85.0472849 129.054178,82.5471468 129.06155,79.3124852 C129.063516,78.4358199 129.359865,77.3485745 128.96031,76.7434072 C128.577711,76.1640611 127.453503,76.1166805 126.677984,75.780755 C125.226467,75.1520229 123.759959,74.5458528 122.36201,73.8075688 C121.603692,73.4069651 121.095034,73.3513118 120.549517,74.0946096 C120.187559,74.5874675 119.711092,74.997096 119.26362,75.4195098 C116.912982,77.6386236 113.514803,77.5288211 111.2772,75.1901278 C110.154959,74.0171462 109.004949,72.8714899 107.860592,71.720569 C105.491033,69.3370021 105.431321,65.8243245 107.734533,63.3705643 C108.252037,62.8192955 108.832694,62.326939 109.31727,61.7488463 C109.469868,61.5665942 109.511887,61.1491943 109.42023,60.9140464 C108.530939,58.6345162 107.580707,56.3798043 106.704194,54.095511 C106.530218,53.6420115 106.351328,53.483575 105.88813,53.4905944 C104.91996,53.5056358 103.939995,53.5452449 102.984111,53.4214037 C100.091888,53.0466212 98.083549,50.7400164 98.0258028,47.7685799 C97.9906637,45.9585933 97.9923838,44.1471025 98.0250656,42.3371159 C98.0825661,39.1596117 100.496602,36.7213943 103.599415,36.6602257 C104.540064,36.6416746 105.718086,36.9530324 106.35354,36.4915109 C106.976953,36.0387636 107.007914,34.7775388 107.370855,33.9023777 C107.985176,32.4205452 108.622596,30.9462334 109.320465,29.5042606 C109.577742,28.9725457 109.588554,28.6885132 109.15853,28.2164627 C108.207315,27.1720854 107.174518,26.1224435 106.538573,24.8810234 C105.478009,22.8115719 106.066037,20.2856127 107.689811,18.6292995 C108.905184,17.3893835 110.129403,16.1584923 111.339124,14.9128104 C113.615061,12.5691033 117.071231,12.5355108 119.381078,14.8674354 C120.028573,15.5212366 120.614881,16.2382119 121.04294,16.7177832 C123.750376,15.6558575 126.2025,14.703985 128.6416,13.7175173 C128.829583,13.641558 129.027885,13.3302002 129.041892,13.1158597 C129.093741,12.3269361 129.069659,11.5327481 129.075065,10.7405656 C129.093495,7.98998759 130.700559,5.87390767 133.309458,5.15743374 C133.406275,5.13086053 133.489822,5.0536478 133.579759,5 L141.068579,5 L141.068579,5 Z M137.307459,28.8775157 C128.525617,28.8642474 121.423819,36.0786234 121.406834,45.0297844 C121.390154,53.9177713 128.503992,61.2339277 137.175012,61.2459766 C146.049494,61.2582447 153.108289,54.0947589 153.108289,45.0759114 C153.108289,36.050546 146.124442,28.8908206 137.307459,28.8775157 Z" id="Combined-Shape" fill="#2B2B2B"></path>
                            <path d="M145.068579,-1.03170805e-11 C145.134188,0.0463777734 145.193655,0.113813563 145.26639,0.136375723 C148.111434,1.02156447 149.547471,2.99399864 149.549437,6.02158983 C149.549928,6.67163073 149.59416,7.32417853 149.551403,7.97096045 C149.516018,8.50618503 149.755112,8.67640399 150.21315,8.840105 C151.85609,9.42697185 153.485515,10.054952 155.104374,10.7077505 C155.865641,11.0148465 156.656641,11.7867231 157.315193,11.666893 C157.988734,11.5443052 158.529583,10.6012069 159.105816,9.99478621 C161.364306,7.61848938 164.814579,7.49865924 167.153422,9.77016737 C168.496574,11.0747616 169.800163,12.4234774 171.08262,13.7904936 C172.625303,15.4347737 173.11504,18.0163862 172.034572,19.995589 C171.364225,21.2234719 170.317176,22.2455377 169.38734,23.3129786 C169.082391,23.6631935 169.021204,23.8805423 169.212872,24.3250168 C170.113467,26.4135208 171.024137,28.5027768 171.790072,30.6441765 C172.07954,31.4531552 172.395301,31.6955731 173.223406,31.6928155 C174.454506,31.6885538 175.741631,31.7033445 176.905401,32.0540608 C178.858451,32.6424318 179.886579,34.2651525 180.516135,36.1631315 L180.516135,43.803431 L180.516135,43.803431 C180.025415,45.5943651 179.131455,47.1143026 177.398087,47.8495783 C176.529437,48.2180936 175.536694,48.326392 174.587199,48.4376986 C173.795708,48.5307049 172.985295,48.4567511 172.32232,48.4567511 C171.420742,50.6590686 170.58846,52.7713882 169.692043,54.855129 C169.023907,56.4081577 168.970093,56.4099125 170.180059,57.5874066 C171.616096,58.9850071 172.648402,60.5325206 172.551585,62.6909672 C172.485975,64.1577583 171.98346,65.3961702 171.009884,66.4292664 C169.761338,67.7541666 168.482813,69.0509894 167.186104,70.3270049 C164.889035,72.587232 161.453014,72.5318294 159.195998,70.2314918 C158.571111,69.5947375 157.997089,68.5806938 157.280054,68.4561005 C156.569898,68.3327607 155.723118,69.1492602 154.91074,69.4899488 C153.171228,70.219208 151.415253,70.9071031 149.563444,71.6534093 C149.563444,72.4528618 149.556809,73.3801666 149.564672,74.3074714 C149.591457,77.4779562 147.273254,80.0432738 144.181991,80.1603464 C142.299465,80.2315425 140.410305,80.2307904 138.527779,80.1626026 C135.350756,80.0472849 133.054178,77.5471468 133.06155,74.3124852 C133.063516,73.4358199 133.359865,72.3485745 132.96031,71.7434072 C132.577711,71.1640611 131.453503,71.1166805 130.677984,70.780755 C129.226467,70.1520229 127.759959,69.5458528 126.36201,68.8075688 C125.603692,68.4069651 125.095034,68.3513118 124.549517,69.0946096 C124.187559,69.5874675 123.711092,69.997096 123.26362,70.4195098 C120.912982,72.6386236 117.514803,72.5288211 115.2772,70.1901278 C114.154959,69.0171462 113.004949,67.8714899 111.860592,66.720569 C109.491033,64.3370021 109.431321,60.8243245 111.734533,58.3705643 C112.252037,57.8192955 112.832694,57.326939 113.31727,56.7488463 C113.469868,56.5665942 113.511887,56.1491943 113.42023,55.9140464 C112.530939,53.6345162 111.580707,51.3798043 110.704194,49.095511 C110.530218,48.6420115 110.351328,48.483575 109.88813,48.4905944 C108.91996,48.5056358 107.939995,48.5452449 106.984111,48.4214037 C104.091888,48.0466212 102.083549,45.7400164 102.025803,42.7685799 C101.990664,40.9585933 101.992384,39.1471025 102.025066,37.3371159 C102.082566,34.1596117 104.496602,31.7213943 107.599415,31.6602257 C108.540064,31.6416746 109.718086,31.9530324 110.35354,31.4915109 C110.976953,31.0387636 111.007914,29.7775388 111.370855,28.9023777 C111.985176,27.4205452 112.622596,25.9462334 113.320465,24.5042606 C113.577742,23.9725457 113.588554,23.6885132 113.15853,23.2164627 C112.207315,22.1720854 111.174518,21.1224435 110.538573,19.8810234 C109.478009,17.8115719 110.066037,15.2856127 111.689811,13.6292995 C112.905184,12.3893835 114.129403,11.1584923 115.339124,9.91281036 C117.615061,7.56910331 121.071231,7.53551077 123.381078,9.86743535 C124.028573,10.5212366 124.614881,11.2382119 125.04294,11.7177832 C127.750376,10.6558575 130.2025,9.70398504 132.6416,8.71751726 C132.829583,8.64155799 133.027885,8.33020018 133.041892,8.11585966 C133.093741,7.32693613 133.069659,6.5327481 133.075065,5.74056559 C133.093495,2.98998759 134.700559,0.873907666 137.309458,0.157433739 C137.406275,0.130860528 137.489822,0.0536478028 137.579759,-1.03170805e-11 L145.068579,-1.03170805e-11 L145.068579,-1.03170805e-11 Z M141.307459,23.8775157 C132.525617,23.8642474 125.423819,31.0786234 125.406834,40.0297844 C125.390154,48.9177713 132.503992,56.2339277 141.175012,56.2459766 C150.049494,56.2582447 157.108289,49.0947589 157.108289,40.0759114 C157.108289,31.050546 150.124442,23.8908206 141.307459,23.8775157 Z" id="Combined-Shape" stroke="#DCBC65"></path>
                            <path d="M76.6355362,49 C76.7291254,49.0659122 76.8139516,49.1617522 76.9177059,49.1938176 C80.9760426,50.4518503 83.0244897,53.2550793 83.0272938,57.5579004 C83.0279949,58.4817404 83.0910887,59.4091431 83.030098,60.3283514 C82.9796229,61.0890141 83.3206803,61.3309298 83.9740521,61.5635821 C86.3176382,62.3976389 88.6419455,63.290126 90.9511805,64.2178851 C92.0370958,64.6543309 93.1654241,65.751324 94.1048215,65.5810211 C95.0656006,65.4067991 95.8370982,64.0664651 96.6590709,63.2046183 C99.880713,59.8274185 104.802384,59.6571156 108.138647,62.8853893 C110.054597,64.7394823 111.914113,66.656281 113.743484,68.5990883 C115.944057,70.9359438 116.642646,74.6049387 115.101404,77.4177873 C114.145181,79.1628579 112.65161,80.6154208 111.325237,82.1324708 C110.89024,82.6301971 110.80296,82.9390938 111.076366,83.5707823 C112.361027,86.53897 113.66006,89.5082265 114.752635,92.5515898 C115.165549,93.7013127 115.615969,94.0458377 116.797226,94.0419186 C118.553338,94.0358618 120.389369,94.0568824 122.049439,94.5553213 C124.835383,95.3915159 126.301964,97.6977311 127.2,100.395144 L127.2,111.253559 L127.2,111.253559 C126.500009,113.79884 125.224812,115.958979 122.752234,117.003955 C121.513141,117.52769 120.097034,117.681604 118.74262,117.839794 C117.61359,117.971974 116.457571,117.866871 115.511864,117.866871 C114.225801,120.996811 113.038585,123.998845 111.759883,126.960264 C110.806815,129.167432 110.730051,129.169926 112.456019,130.843384 C114.504466,132.829658 115.977006,135.028988 115.838901,138.096579 C115.745311,140.181187 115.028495,141.941221 113.639729,143.40946 C111.85873,145.292412 110.034967,147.13546 108.185266,148.948937 C104.908592,152.161178 100.007251,152.08244 96.7877122,148.813194 C95.8963363,147.908237 95.0775184,146.467075 94.0546969,146.290003 C93.0416901,146.114712 91.8337934,147.275123 90.6749696,147.759311 C88.1936287,148.795736 85.6888028,149.773374 83.0472736,150.834027 C83.0472736,151.970211 83.0378095,153.288099 83.0490262,154.605987 C83.087233,159.111889 79.7804142,162.757726 75.370855,162.92411 C72.6855106,163.025294 69.9907021,163.024225 67.3053577,162.927316 C62.7734666,162.763426 59.4974937,159.210223 59.5080093,154.613113 C59.5108135,153.367194 59.9335423,151.821998 59.3635945,150.961932 C58.8178327,150.138564 57.2141973,150.071226 56.1079518,149.593808 C54.0374219,148.700252 51.9455102,147.838762 49.951394,146.78951 C48.869685,146.220171 48.1441057,146.141077 47.3659482,147.197454 C46.8496302,147.897904 46.1699692,148.48007 45.5316697,149.080405 C42.1785821,152.234216 37.3312217,152.078165 34.1393739,148.754407 C32.5385427,147.087362 30.8981026,145.459152 29.2657244,143.82346 C25.8856466,140.435928 25.8004699,135.443701 29.085907,131.95641 C29.824105,131.172945 30.6523871,130.473207 31.3436153,129.65162 C31.561289,129.392603 31.6212282,128.799393 31.4904837,128.4652 C30.2219468,125.225525 28.8664806,122.021122 27.6161707,118.774678 C27.3680016,118.130164 27.112822,117.904993 26.4520892,117.914969 C25.0710349,117.936346 23.6731556,117.992639 22.3096274,117.816635 C18.1839905,117.283993 15.3191792,114.00584 15.2368067,109.782826 C15.1866821,107.210468 15.1891357,104.635972 15.2357551,102.063614 C15.3177771,97.5477362 18.7612993,94.0825347 23.1873329,93.9956019 C24.5291288,93.969237 26.2095284,94.4117396 27.1159767,93.7558239 C28.0052495,93.1123781 28.0494152,91.3199219 28.5671353,90.0761405 C29.4434388,87.9701559 30.3526913,85.8748598 31.348172,83.8255242 C31.7151679,83.0698494 31.7305909,82.6661816 31.1171784,81.9953021 C29.7603101,80.5110301 28.2870687,79.0192762 27.3799193,77.2549663 C25.867069,74.3138561 26.7058667,70.7239558 29.0221121,68.3699988 C30.7557909,66.6078266 32.5020885,64.8584806 34.2277053,63.088114 C37.4742344,59.7572309 42.4043179,59.7094891 45.699219,63.0236269 C46.6228428,63.9528111 47.4591869,64.9717784 48.0697952,65.6533464 C51.9318399,64.1441346 55.4296929,62.7913308 58.9089682,61.3893601 C59.1771171,61.2814065 59.4599879,60.8389039 59.4799676,60.5342826 C59.5539276,59.4130622 59.5195765,58.28436 59.527288,57.158508 C59.5535771,53.2493788 61.845987,50.242 65.5674727,49.2237453 C65.7055781,49.1859794 65.8247554,49.0762444 65.9530462,49 L76.6355362,49 L76.6355362,49 Z M71.77085,84.000026 C59.3050952,83.9811699 49.2241511,94.233772 49.2000416,106.95458 C49.1763642,119.585609 59.2743999,129.982854 71.5828416,129.999978 C84.1800976,130.017412 94.2,119.837132 94.2,107.020133 C94.2,94.1938703 84.2864845,84.0189341 71.77085,84.000026 Z" id="Combined-Shape" fill="#2B2B2B" transform="translate(71.200000, 106.000000) rotate(-17.000000) translate(-71.200000, -106.000000) "></path>
                            <path d="M80.6355362,42 C80.7291254,42.0659122 80.8139516,42.1617522 80.9177059,42.1938176 C84.9760426,43.4518503 87.0244897,46.2550793 87.0272938,50.5579004 C87.0279949,51.4817404 87.0910887,52.4091431 87.030098,53.3283514 C86.9796229,54.0890141 87.3206803,54.3309298 87.9740521,54.5635821 C90.3176382,55.3976389 92.6419455,56.290126 94.9511805,57.2178851 C96.0370958,57.6543309 97.1654241,58.751324 98.1048215,58.5810211 C99.0656006,58.4067991 99.8370982,57.0664651 100.659071,56.2046183 C103.880713,52.8274185 108.802384,52.6571156 112.138647,55.8853893 C114.054597,57.7394823 115.914113,59.656281 117.743484,61.5990883 C119.944057,63.9359438 120.642646,67.6049387 119.101404,70.4177873 C118.145181,72.1628579 116.65161,73.6154208 115.325237,75.1324708 C114.89024,75.6301971 114.80296,75.9390938 115.076366,76.5707823 C116.361027,79.53897 117.66006,82.5082265 118.752635,85.5515898 C119.165549,86.7013127 119.615969,87.0458377 120.797226,87.0419186 C122.553338,87.0358618 124.389369,87.0568824 126.049439,87.5553213 C128.835383,88.3915159 130.301964,90.6977311 131.2,93.3951442 L131.2,104.253559 L131.2,104.253559 C130.500009,106.79884 129.224812,108.958979 126.752234,110.003955 C125.513141,110.52769 124.097034,110.681604 122.74262,110.839794 C121.61359,110.971974 120.457571,110.866871 119.511864,110.866871 C118.225801,113.996811 117.038585,116.998845 115.759883,119.960264 C114.806815,122.167432 114.730051,122.169926 116.456019,123.843384 C118.504466,125.829658 119.977006,128.028988 119.838901,131.096579 C119.745311,133.181187 119.028495,134.941221 117.639729,136.40946 C115.85873,138.292412 114.034967,140.13546 112.185266,141.948937 C108.908592,145.161178 104.007251,145.08244 100.787712,141.813194 C99.8963363,140.908237 99.0775184,139.467075 98.0546969,139.290003 C97.0416901,139.114712 95.8337934,140.275123 94.6749696,140.759311 C92.1936287,141.795736 89.6888028,142.773374 87.0472736,143.834027 C87.0472736,144.970211 87.0378095,146.288099 87.0490262,147.605987 C87.087233,152.111889 83.7804142,155.757726 79.370855,155.92411 C76.6855106,156.025294 73.9907021,156.024225 71.3053577,155.927316 C66.7734666,155.763426 63.4974937,152.210223 63.5080093,147.613113 C63.5108135,146.367194 63.9335423,144.821998 63.3635945,143.961932 C62.8178327,143.138564 61.2141973,143.071226 60.1079518,142.593808 C58.0374219,141.700252 55.9455102,140.838762 53.951394,139.78951 C52.869685,139.220171 52.1441057,139.141077 51.3659482,140.197454 C50.8496302,140.897904 50.1699692,141.48007 49.5316697,142.080405 C46.1785821,145.234216 41.3312217,145.078165 38.1393739,141.754407 C36.5385427,140.087362 34.8981026,138.459152 33.2657244,136.82346 C29.8856466,133.435928 29.8004699,128.443701 33.085907,124.95641 C33.824105,124.172945 34.6523871,123.473207 35.3436153,122.65162 C35.561289,122.392603 35.6212282,121.799393 35.4904837,121.4652 C34.2219468,118.225525 32.8664806,115.021122 31.6161707,111.774678 C31.3680016,111.130164 31.112822,110.904993 30.4520892,110.914969 C29.0710349,110.936346 27.6731556,110.992639 26.3096274,110.816635 C22.1839905,110.283993 19.3191792,107.00584 19.2368067,102.782826 C19.1866821,100.210468 19.1891357,97.6359722 19.2357551,95.0636141 C19.3177771,90.5477362 22.7612993,87.0825347 27.1873329,86.9956019 C28.5291288,86.969237 30.2095284,87.4117396 31.1159767,86.7558239 C32.0052495,86.1123781 32.0494152,84.3199219 32.5671353,83.0761405 C33.4434388,80.9701559 34.3526913,78.8748598 35.348172,76.8255242 C35.7151679,76.0698494 35.7305909,75.6661816 35.1171784,74.9953021 C33.7603101,73.5110301 32.2870687,72.0192762 31.3799193,70.2549663 C29.867069,67.3138561 30.7058667,63.7239558 33.0221121,61.3699988 C34.7557909,59.6078266 36.5020885,57.8584806 38.2277053,56.088114 C41.4742344,52.7572309 46.4043179,52.7094891 49.699219,56.0236269 C50.6228428,56.9528111 51.4591869,57.9717784 52.0697952,58.6533464 C55.9318399,57.1441346 59.4296929,55.7913308 62.9089682,54.3893601 C63.1771171,54.2814065 63.4599879,53.8389039 63.4799676,53.5342826 C63.5539276,52.4130622 63.5195765,51.28436 63.527288,50.158508 C63.5535771,46.2493788 65.845987,43.242 69.5674727,42.2237453 C69.7055781,42.1859794 69.8247554,42.0762444 69.9530462,42 L80.6355362,42 L80.6355362,42 Z M75.77085,77.000026 C63.3050952,76.9811699 53.2241511,87.233772 53.2000416,99.9545798 C53.1763642,112.585609 63.2743999,122.982854 75.5828416,122.999978 C88.1800976,123.017412 98.2,112.837132 98.2,100.020133 C98.2,87.1938703 88.2864845,77.0189341 75.77085,77.000026 Z" id="Combined-Shape" stroke="#DCBC65" transform="translate(75.200000, 99.000000) rotate(-17.000000) translate(-75.200000, -99.000000) "></path>
                        </g>
                    </g>
                </g>
            </g>
        </g>
    </g>
</svg>