<?xml version="1.0" encoding="UTF-8"?>
<svg width="97px" height="97px" viewBox="0 0 97 97" version="1.1" xmlns="http://www.w3.org/2000/svg" xmlns:xlink="http://www.w3.org/1999/xlink">
    <title>Group 9 Copy</title>
    <g id="Smart-Infrastructure" stroke="none" stroke-width="1" fill="none" fill-rule="evenodd">
        <g id="30-Smart-Infrastructure-/-02-Dashboard-/-02_02_Dashboard" transform="translate(-477.000000, -411.000000)">
            <g id="Group-8" transform="translate(356.000000, 381.000000)">
                <g id="Group-9-Copy" transform="translate(122.000000, 31.000000)">
                    <g id="Group-2-Copy" stroke="#DCBC65" opacity="0.1" stroke-width="1.90023753">
                        <circle id="Oval-Copy-4" cx="47.5059382" cy="47.5059382" r="47.5059382"></circle>
                    </g>
                    <g id="Group" transform="translate(31.163895, 31.163895)" fill-rule="nonzero">
                        <path d="M32.218766,21.4394299 C32.2700736,21.023753 32.3042787,20.5914489 32.3042787,20.1425178 C32.3042787,19.6935867 32.2700736,19.2612827 32.2016635,18.8456057 L35.0919926,16.6508314 C35.3485307,16.4513064 35.4169408,16.0855107 35.263018,15.8028504 L32.5266117,11.1971496 C32.3555863,10.8978622 31.996433,10.7980998 31.6885873,10.8978622 L28.2851821,12.2280285 C27.5668754,11.695962 26.8143637,11.263658 25.9763393,10.9311164 L25.4632631,7.40617577 C25.4119555,7.0736342 25.1212124,6.84085511 24.7791616,6.84085511 L19.3063491,6.84085511 C18.9642983,6.84085511 18.6906577,7.0736342 18.6393501,7.40617577 L18.1262739,10.9311164 C17.2882495,11.263658 16.5186353,11.7125891 15.8174312,12.2280285 L12.4140259,10.8978622 C12.1061802,10.7814727 11.7470269,10.8978622 11.5760015,11.1971496 L8.83959526,15.8028504 C8.66856987,16.1021378 8.73698003,16.4513064 9.01062065,16.6508314 L11.9009497,18.8456057 C11.8325396,19.2612827 11.781232,19.7102138 11.781232,20.1425178 C11.781232,20.5748219 11.815437,21.023753 11.8838472,21.4394299 L8.99351811,23.6342043 C8.73698003,23.8337292 8.66856987,24.1995249 8.82249273,24.4821853 L11.558899,29.087886 C11.7299243,29.3871734 12.0890777,29.4869359 12.3969234,29.3871734 L15.8003286,28.0570071 C16.5186353,28.5890736 17.271147,29.0213777 18.1091714,29.3539192 L18.6222476,32.8788599 C18.6906577,33.2114014 18.9642983,33.4441805 19.3063491,33.4441805 L24.7791616,33.4441805 C25.1212124,33.4441805 25.4119555,33.2114014 25.4461606,32.8788599 L25.9592368,29.3539192 C26.7972612,29.0213777 27.5668754,28.5724466 28.2680795,28.0570071 L31.6714848,29.3871734 C31.9793305,29.5035629 32.3384838,29.3871734 32.5095092,29.087886 L35.2459154,24.4821853 C35.4169408,24.1828979 35.3485307,23.8337292 35.07489,23.6342043 L32.218766,21.4394299 L32.218766,21.4394299 Z M22.0427553,25.8432304 C18.9073634,25.8432304 16.3420428,23.2779097 16.3420428,20.1425178 C16.3420428,17.0071259 18.9073634,14.4418052 22.0427553,14.4418052 C25.1781473,14.4418052 27.7434679,17.0071259 27.7434679,20.1425178 C27.7434679,23.2779097 25.1781473,25.8432304 22.0427553,25.8432304 Z" id="Mask-Copy" fill="#151515" opacity="0.1" transform="translate(22.042755, 20.142518) rotate(-15.000000) translate(-22.042755, -20.142518) "></path>
                        <path d="M26.5180534,17.6389549 C26.5693611,17.2232779 26.6035661,16.7909739 26.6035661,16.3420428 C26.6035661,15.8931116 26.5693611,15.4608076 26.5009509,15.0451306 L29.39128,12.8503563 C29.6478181,12.6508314 29.7162282,12.2850356 29.5623054,12.0023753 L26.8258991,7.39667458 C26.6548738,7.09738717 26.2957204,6.9976247 25.9878747,7.09738717 L22.5844695,8.42755344 C21.8661628,7.89548694 21.1136511,7.4631829 20.2756267,7.13064133 L19.7625505,3.60570071 C19.7112429,3.27315914 19.4204998,3.04038005 19.078449,3.04038005 L13.6056365,3.04038005 C13.2635857,3.04038005 12.9899451,3.27315914 12.9386375,3.60570071 L12.4255613,7.13064133 C11.5875369,7.4631829 10.8179227,7.91211401 10.1167186,8.42755344 L6.71331332,7.09738717 C6.40546762,6.98099762 6.0463143,7.09738717 5.87528891,7.39667458 L3.13888268,12.0023753 C2.96785729,12.3016627 3.03626744,12.6508314 3.30990806,12.8503563 L6.20023715,15.0451306 C6.13182699,15.4608076 6.08051938,15.9097387 6.08051938,16.3420428 C6.08051938,16.7743468 6.11472445,17.2232779 6.18313461,17.6389549 L3.29280553,19.8337292 C3.03626744,20.0332542 2.96785729,20.3990499 3.12178014,20.6817102 L5.85818637,25.2874109 C6.02921176,25.5866983 6.38836508,25.6864608 6.69621078,25.5866983 L10.099616,24.2565321 C10.8179227,24.7885986 11.5704344,25.2209026 12.4084588,25.5534442 L12.921535,29.0783848 C12.9899451,29.4109264 13.2635857,29.6437055 13.6056365,29.6437055 L19.078449,29.6437055 C19.4204998,29.6437055 19.7112429,29.4109264 19.745448,29.0783848 L20.2585242,25.5534442 C21.0965486,25.2209026 21.8661628,24.7719715 22.5673669,24.2565321 L25.9707722,25.5866983 C26.2786179,25.7030879 26.6377712,25.5866983 26.8087966,25.2874109 L29.5452028,20.6817102 C29.7162282,20.3824228 29.6478181,20.0332542 29.3741774,19.8337292 L26.5180534,17.6389549 L26.5180534,17.6389549 Z M16.3420428,22.0427553 C13.2066508,22.0427553 10.6413302,19.4774347 10.6413302,16.3420428 C10.6413302,13.2066508 13.2066508,10.6413302 16.3420428,10.6413302 C19.4774347,10.6413302 22.0427553,13.2066508 22.0427553,16.3420428 C22.0427553,19.4774347 19.4774347,22.0427553 16.3420428,22.0427553 Z" id="Mask-Copy" fill="#DCBC65" opacity="0.1" transform="translate(16.342043, 16.342043) rotate(-15.000000) translate(-16.342043, -16.342043) "></path>
                    </g>
                </g>
            </g>
        </g>
    </g>
</svg>
