<svg xmlns="http://www.w3.org/2000/svg" width="13" height="15" viewBox="0 0 13 15">
    <g fill="none" fill-rule="evenodd">
        <path d="M-4-3h20v20H-4z"/>
        <path fill="#FFF" fill-rule="nonzero" d="M2.889 10.111h5.055v1.445H2.89V10.11zm0-2.889h7.222v1.445H2.89V7.222zm0-2.889h7.222v1.445H2.89V4.333zm8.667-2.889h-3.02A2.174 2.174 0 0 0 6.5 0c-.939 0-1.733.607-2.037 1.444H1.444a1.45 1.45 0 0 0-1.329.888A1.391 1.391 0 0 0 0 2.89V13c0 .195.043.39.116.563a1.45 1.45 0 0 0 1.04.86c.093.014.187.021.288.021h10.112c.794 0 1.444-.65 1.444-1.444V2.889c0-.795-.65-1.445-1.444-1.445zM6.5 1.264c.296 0 .542.245.542.542a.546.546 0 0 1-.542.541.546.546 0 0 1-.542-.541c0-.297.246-.542.542-.542zM11.556 13H1.444V2.889h10.112V13z"/>
    </g>
</svg>
