<svg xmlns="http://www.w3.org/2000/svg" width="16" height="16" viewBox="0 0 16 16">
    <g fill="none" fill-rule="evenodd">
        <path d="M-2-2h20v20H-2z"/>
        <path fill="#1a1a1a" fill-rule="nonzero" d="M15.65 3.128c.32.391.42.902.302 1.378L14.69 9.742a1.608 1.608 0 0 1-1.567 1.241h-6.72c-.742 0-1.382-.51-1.567-1.24L2.779 1.478a.558.558 0 0 0-.539-.425H.522A.527.527 0 0 1 .522 0H2.24c.742 0 1.382.51 1.567 1.241l.32 1.258h10.259c.488 0 .96.238 1.263.63zm-.725 1.14c.05-.17 0-.34-.101-.477a.557.557 0 0 0-.438-.22h-9.99l1.466 5.933a.558.558 0 0 0 .54.425h6.72c.253 0 .472-.17.54-.425l1.263-5.236zm-8.17 7.396c.96 0 1.752.799 1.752 1.768S7.715 15.2 6.755 15.2s-1.752-.8-1.752-1.768c0-.97.792-1.768 1.752-1.768zm0 2.465c.37 0 .69-.323.69-.697a.686.686 0 0 0-.69-.697.686.686 0 0 0-.69.697c0 .39.302.697.69.697zm5.795-2.465c.96 0 1.735.799 1.752 1.768 0 .969-.792 1.768-1.752 1.768s-1.752-.8-1.752-1.768c0-.97.791-1.768 1.752-1.768zm0 2.465c.37 0 .69-.323.69-.697a.686.686 0 0 0-.69-.697.686.686 0 0 0-.691.697c0 .39.303.697.69.697z"/>
    </g>
</svg>
