<?xml version="1.0" encoding="UTF-8"?>
<svg width="18px" height="16px" viewBox="0 0 18 16" version="1.1" xmlns="http://www.w3.org/2000/svg" xmlns:xlink="http://www.w3.org/1999/xlink">
    <!-- Generator: Sketch 57.1 (83088) - https://sketch.com -->
    <title>icon / 24-cont / nav / parameters-24</title>
    <desc>Created with Sketch.</desc>
    <defs>
        <path d="M9,16 C10.1045695,16 11,16.8954305 11,18 C11,19.1045695 10.1045695,20 9,20 C7.8954305,20 7,19.1045695 7,18 C7,16.8954305 7.8954305,16 9,16 Z M6.17100001,16.9991677 C6.06026098,17.3121818 6,17.6490536 6,18 C6,18.350972 6.06026977,18.6878673 6.17102423,19.0009007 L4,19 C3.44771525,19 3,18.5522847 3,18 C3,17.4871642 3.38604019,17.0644928 3.88337887,17.0067277 L4,17 L6.17100001,16.9991677 Z M11.829,16.9991677 L20,17 C20.5522847,17 21,17.4477153 21,18 C21,18.5522847 20.5522847,19 20,19 L11.8289758,19.0009007 C11.9397302,18.6878673 12,18.350972 12,18 C12,17.6490536 11.939739,17.3121818 11.829,16.9991677 Z M16,10 C17.1045695,10 18,10.8954305 18,12 C18,13.1045695 17.1045695,14 16,14 C14.8954305,14 14,13.1045695 14,12 C14,10.8954305 14.8954305,10 16,10 Z M13.171,10.9991677 C13.060261,11.3121818 13,11.6490536 13,12 C13,12.3506022 13.0601428,12.6871573 13.1706743,12.9999111 L4,13 C3.44771525,13 3,12.5522847 3,12 C3,11.4871642 3.38604019,11.0644928 3.88337887,11.0067277 L4,11 L13.171,10.9991677 Z M20,11 C20.5522847,11 21,11.4477153 21,12 C21,12.5522847 20.5522847,13 20,13 L18.8293257,12.9999111 C18.9398572,12.6871573 19,12.3506022 19,12 C19,11.6490536 18.939739,11.3121818 18.829,10.9991677 L20,11 Z M8,4 C9.1045695,4 10,4.8954305 10,6 C10,7.1045695 9.1045695,8 8,8 C6.8954305,8 6,7.1045695 6,6 C6,4.8954305 6.8954305,4 8,4 Z M5.17100001,4.99916774 C5.06026098,5.31218182 5,5.64905356 5,6 C5,6.35097203 5.06026977,6.6878673 5.17102423,7.00090072 L4,7 C3.44771525,7 3,6.55228475 3,6 C3,5.48716416 3.38604019,5.06449284 3.88337887,5.00672773 L4,5 L5.17100001,4.99916774 Z M20,5 C20.5522847,5 21,5.44771525 21,6 C21,6.55228475 20.5522847,7 20,7 L10.8289758,7.00090072 C10.9397302,6.6878673 11,6.35097203 11,6 C11,5.64905356 10.939739,5.31218182 10.829,4.99916774 L20,5 Z" id="path-1"></path>
    </defs>
    <g id="01-Screens-with-bad-navigation" stroke="none" stroke-width="1" fill="none" fill-rule="evenodd">
        <g id="30-Smart-Infrastructure-/-02-Location-/-02_06_ItemManager-GridView" transform="translate(-1294.000000, -272.000000)">
            <g id="icon-/-24-cont-/-nav-/-parameters-24" transform="translate(1291.000000, 268.000000)">
                <mask id="mask-2" fill="white">
                    <use xlink:href="#path-1"></use>
                </mask>
                <use id="Mask" fill="#7E7E7E" fill-rule="nonzero" xlink:href="#path-1"></use>
                <g id="Colors-/-Dark-Theme-/-Grayscale-/-Filled-/-$base-gray" mask="url(#mask-2)" fill="#7E7E7E" fill-rule="evenodd">
                    <rect id="Dark-Theme-/-Grayscale-/-Filled-/-$base-gray" x="0" y="0" width="24" height="24"></rect>
                </g>
            </g>
        </g>
    </g>
</svg>